<svg xmlns="http://www.w3.org/2000/svg" xmlns:xlink="http://www.w3.org/1999/xlink" viewBox="0 0 3710 3710"><defs><style>.cls-1{isolation:isolate;}.cls-2{fill:url(#linear-gradient);}.cls-3,.cls-4,.cls-6{fill:#bdd0fb;}.cls-3{opacity:0.5;}.cls-4{opacity:0.47;mix-blend-mode:multiply;}.cls-5{fill:#7d97f4;}.cls-7{opacity:0.94;}.cls-8{fill:#91b3fa;}.cls-9{fill:url(#linear-gradient-2);}.cls-10{fill:url(#linear-gradient-3);}.cls-11,.cls-12,.cls-16,.cls-34{fill:#fff;}.cls-11,.cls-15{opacity:0.6;}.cls-12{opacity:0.78;}.cls-13{fill:url(#linear-gradient-4);}.cls-14{fill:url(#linear-gradient-5);}.cls-17{fill:url(#linear-gradient-6);}.cls-18{fill:url(#linear-gradient-7);}.cls-19{fill:url(#linear-gradient-8);}.cls-20{fill:url(#linear-gradient-9);}.cls-21{fill:url(#linear-gradient-10);}.cls-22{fill:url(#linear-gradient-11);}.cls-23{fill:url(#linear-gradient-12);}.cls-24{fill:url(#linear-gradient-13);}.cls-25{fill:url(#linear-gradient-14);}.cls-26{fill:url(#linear-gradient-15);}.cls-27{fill:url(#linear-gradient-16);}.cls-28{fill:url(#linear-gradient-17);}.cls-29{fill:url(#linear-gradient-18);}.cls-30{fill:url(#linear-gradient-19);}.cls-31{fill:url(#linear-gradient-20);}.cls-32{fill:url(#linear-gradient-21);}.cls-33{fill:url(#linear-gradient-22);}.cls-34{opacity:0.44;}.cls-35{fill:url(#linear-gradient-23);}.cls-36{fill:url(#linear-gradient-24);}.cls-37{fill:url(#linear-gradient-25);}.cls-38{fill:url(#linear-gradient-26);}.cls-39{fill:url(#linear-gradient-27);}.cls-40{fill:url(#linear-gradient-28);}.cls-41{fill:url(#linear-gradient-29);}</style><linearGradient id="linear-gradient" x1="3609.27" y1="4081.83" x2="1127.59" y2="999.74" gradientUnits="userSpaceOnUse"><stop offset="0" stop-color="#dae3fe"/><stop offset="1" stop-color="#e9effd"/></linearGradient><linearGradient id="linear-gradient-2" x1="1935.41" y1="623.55" x2="-243.51" y2="3485.5" gradientTransform="translate(240.26 176.33) rotate(-0.05)" gradientUnits="userSpaceOnUse"><stop offset="0" stop-color="#09005d"/><stop offset="1" stop-color="#1a0f91"/></linearGradient><linearGradient id="linear-gradient-3" x1="3012.32" y1="1176.05" x2="1123.88" y2="2990.31" gradientTransform="translate(-1429.37 855.88) rotate(-22.73)" gradientUnits="userSpaceOnUse"><stop offset="0" stop-color="#ff928e"/><stop offset="1" stop-color="#fe7062"/></linearGradient><linearGradient id="linear-gradient-4" x1="879.52" y1="800.13" x2="209.63" y2="1797.45" gradientTransform="translate(1144.21 -90.47) rotate(44.95)" xlink:href="#linear-gradient-3"/><linearGradient id="linear-gradient-5" x1="993.91" y1="876.98" x2="324.03" y2="1874.28" gradientTransform="translate(240.26 176.33) rotate(-0.05)" xlink:href="#linear-gradient-3"/><linearGradient id="linear-gradient-6" x1="869.26" y1="1211.92" x2="368.72" y2="2066.22" gradientTransform="translate(240.26 176.33) rotate(-0.05)" xlink:href="#linear-gradient-3"/><linearGradient id="linear-gradient-7" x1="1298.63" y1="104.55" x2="666.37" y2="936.27" xlink:href="#linear-gradient-2"/><linearGradient id="linear-gradient-8" x1="1367.98" y1="157.27" x2="735.73" y2="988.98" xlink:href="#linear-gradient-2"/><linearGradient id="linear-gradient-9" x1="1393.77" y1="18.07" x2="1262.09" y2="1193.07" gradientTransform="matrix(1, 0, 0, 1, 0, 0)" xlink:href="#linear-gradient-3"/><linearGradient id="linear-gradient-10" x1="994.07" y1="2494.17" x2="3189.37" y2="2494.17" gradientUnits="userSpaceOnUse"><stop offset="0" stop-color="#4f52ff"/><stop offset="1" stop-color="#4042e2"/></linearGradient><linearGradient id="linear-gradient-11" x1="1294.54" y1="1560.09" x2="927.68" y2="2029.46" gradientTransform="matrix(0.97, 0.25, -0.25, 0.97, 1022.83, 216.9)" gradientUnits="userSpaceOnUse"><stop offset="0" stop-color="#febbba"/><stop offset="1" stop-color="#ff928e"/></linearGradient><linearGradient id="linear-gradient-12" x1="-2990.05" y1="1482.77" x2="-2817.25" y2="1916.25" gradientTransform="matrix(-1, 0, 0, 1, -1561.28, 0)" xlink:href="#linear-gradient-2"/><linearGradient id="linear-gradient-13" x1="-2556.67" y1="3218.77" x2="-2472.81" y2="3218.77" gradientTransform="matrix(-1, 0, 0, 1, -1561.28, 0)" xlink:href="#linear-gradient-2"/><linearGradient id="linear-gradient-14" x1="-2910.99" y1="3549.44" x2="-2790.32" y2="2139.09" gradientTransform="matrix(-1, 0, 0, 1, -1561.28, 0)" xlink:href="#linear-gradient-11"/><linearGradient id="linear-gradient-15" x1="-2946.25" y1="3203.46" x2="-2810.56" y2="3203.46" gradientTransform="matrix(-1, 0, 0, 1, -1561.28, 0)" xlink:href="#linear-gradient-2"/><linearGradient id="linear-gradient-16" x1="-2668.26" y1="3570.43" x2="-2547.55" y2="2159.7" gradientTransform="matrix(-1, 0, 0, 1, -1561.28, 0)" xlink:href="#linear-gradient-11"/><linearGradient id="linear-gradient-17" x1="1880.43" y1="1781.73" x2="1673.37" y2="1932.53" gradientTransform="matrix(1, 0, 0, 1, 0, 0)" xlink:href="#linear-gradient-3"/><linearGradient id="linear-gradient-18" x1="1861.2" y1="2257.19" x2="1514.01" y2="2837.84" gradientTransform="translate(-395.84)" xlink:href="#linear-gradient-2"/><linearGradient id="linear-gradient-19" x1="-2924.23" y1="2159.26" x2="-2901.56" y2="1993.42" gradientTransform="matrix(-1, 0, 0, 1, -1561.28, 0)" xlink:href="#linear-gradient-11"/><linearGradient id="linear-gradient-20" x1="-2747.75" y1="1444.24" x2="-2549.96" y2="1092.25" gradientTransform="matrix(-0.9, -0.44, -0.44, 0.9, -462.03, -530.42)" xlink:href="#linear-gradient-11"/><linearGradient id="linear-gradient-21" x1="-2705.21" y1="1137.71" x2="-2606.32" y2="1385.78" gradientTransform="matrix(-0.9, -0.44, -0.44, 0.9, -462.03, -530.42)" xlink:href="#linear-gradient-2"/><linearGradient id="linear-gradient-22" x1="-2705.65" y1="1467.9" x2="-2507.86" y2="1115.91" gradientTransform="matrix(-0.9, -0.44, -0.44, 0.9, -462.03, -530.42)" xlink:href="#linear-gradient-11"/><linearGradient id="linear-gradient-23" x1="1045.65" y1="2413.11" x2="1362.28" y2="2413.11" xlink:href="#linear-gradient"/><linearGradient id="linear-gradient-24" x1="1206.68" y1="2214.45" x2="1628.92" y2="2214.45" xlink:href="#linear-gradient"/><linearGradient id="linear-gradient-25" x1="1914.81" y1="2137.93" x2="2076.25" y2="2810.62" gradientTransform="translate(-395.84)" xlink:href="#linear-gradient-2"/><linearGradient id="linear-gradient-26" x1="2015.89" y1="2031.89" x2="1981.51" y2="2182.88" gradientTransform="translate(-395.84)" xlink:href="#linear-gradient-3"/><linearGradient id="linear-gradient-27" x1="1997.89" y1="2095.23" x2="1981.45" y2="2193.9" gradientTransform="translate(-395.84)" xlink:href="#linear-gradient-3"/><linearGradient id="linear-gradient-28" x1="1804.18" y1="2315.89" x2="1895.65" y2="2315.89" gradientTransform="translate(-395.84)" xlink:href="#linear-gradient-11"/><linearGradient id="linear-gradient-29" x1="1367.28" y1="2117.81" x2="1425.69" y2="2117.81" xlink:href="#linear-gradient"/></defs><title>Check anytimeArtboard 35</title><g class="cls-1"><g id="Illustration"><path class="cls-2" d="M2933.93,2861.24c-57.41,59.73-111.73,98.25-154.65,128.68-504.47,357.74-1101.4,253.46-1228.26,228-187.34-37.61-549.46-110.3-811.26-414.58C343.67,2343,405.34,1617.7,712.58,1138.94c56.2-87.58,353.05-573.64,956.4-651.58,365.15-47.18,790.79,48,1099,303.19C3415,1326.3,3369,2408.59,2933.93,2861.24Z"/><polygon class="cls-3" points="2759.32 691.23 2555.44 688.77 2450.65 878.7 2555.44 1067.63 2759.32 1063.23 2858.53 876.76 2759.32 691.23"/><polygon class="cls-3" points="3091.96 877.28 2888.07 874.83 2783.29 1064.75 2888.07 1253.68 3091.96 1249.28 3191.16 1062.81 3091.96 877.28"/><polygon class="cls-4" points="3136.24 457 2894.05 458.36 2769.68 644.47 2894.05 825.87 3136.24 818.07 3254.17 635.31 3136.24 457"/><path class="cls-5" d="M2568.48,473.15c33,228.21,171,1564.09-1059.35,1918.7,0,0-317.21-856.08,1027.89-1931.19A19.51,19.51,0,0,1,2568.48,473.15Z"/><path class="cls-6" d="M2458,676.73s-22.82,114.34-71.28,282.15c-24.21,83.88-54.73,181.11-91.65,283.85s-80.13,211-128.77,316.82-103,209.15-160.17,302.32S1888.94,2038,1832.3,2104.75c-28.33,33.4-55.72,62.8-80.78,88.1L1733.13,2211c-5.94,5.82-11.9,11.19-17.5,16.49-11.15,10.65-21.92,19.86-31.49,28.34l-7,6.17-6.79,5.62L1658,2277.84c-7.58,6.43-14.32,11.54-19.74,15.75l-16.62,12.88a6.75,6.75,0,1,1-8.28-10.67h0l.17-.14L1630,2283c5.37-4.13,12-9.15,19.57-15.47l12.24-10.05,6.73-5.52,7-6.07c9.51-8.35,20.2-17.41,31.28-27.92,5.56-5.21,11.49-10.5,17.39-16.25l18.29-17.9c24.92-25,52.2-54,80.45-87,56.49-66,116.59-148.17,173.83-240.71s111.8-195.28,160.85-300.57,92.66-213.14,129.8-315.56,68.15-199.36,92.68-283,42.64-154.05,54.6-203.47,17.74-77.88,17.74-77.88a2.86,2.86,0,1,1,5.6,1.14Z"/><g class="cls-7"><path class="cls-8" d="M3060,1017c-.47,237-59.49,1615.84-1363.36,1792.88,0,0-194.83-917.77,1333.24-1810.28A20,20,0,0,1,3060,1017Z"/><path class="cls-6" d="M2917.24,1207.56s-10.19,27.5-29.54,74.93c-9.75,23.69-21.62,52.44-35.85,85.17s-30.53,69.52-48.78,109.46c-18.47,39.84-38.61,82.94-61,128-22.07,45.23-46.38,92.4-71.86,141-25.92,48.4-53,98.27-81.87,148.16l-21.68,37.6-22.42,37.46c-14.79,25.14-30.46,49.9-45.91,74.78-3.9,6.2-7.7,12.46-11.67,18.61l-11.95,18.42L2450.9,2118c-16.14,24.31-32.59,48.29-48.8,72.14l-24.95,35.12-12.39,17.43-6.17,8.68-6.34,8.51L2327,2293.62c-8.35,11.18-16.57,22.33-25.19,33-33.72,43.39-67.45,84.48-100.61,122.43L2176.49,2477l-12.1,13.63c-4,4.54-8.22,8.76-12.26,13.1l-24.07,25.36-11.7,12.33c-3.87,4.07-7.65,8.15-11.64,12l-45.12,44.2-5.35,5.22-5.47,4.95-10.73,9.7L2017.52,2636l-19.27,17.39q-9.66,8-18.62,15.41l-32.79,27.15c-4.88,4.19-9.79,7.79-14.37,11.21l-12.87,9.66L1899.3,2732l-16.91,12.67a6.75,6.75,0,1,1-8.09-10.81h0l.27-.21,16.8-12.49,20.18-15,12.79-9.51c4.56-3.38,9.44-6.92,14.3-11.06l32.64-26.79,18.53-15.21,19.2-17.2,20.47-18.35,10.69-9.58,5.45-4.9,5.34-5.16,45-43.74c4-3.75,7.75-7.8,11.62-11.83l11.69-12.22,24-25.12c4-4.3,8.28-8.48,12.25-13l12.09-13.51,24.74-27.64c33.16-37.64,66.92-78.41,100.7-121.51,8.63-10.62,16.87-21.7,25.23-32.81l25.28-33.54,6.36-8.46,6.18-8.63,12.42-17.32q12.45-17.37,25-34.91c16.26-23.71,32.76-47.55,49-71.73l24-36.58,12-18.33c4-6.12,7.8-12.35,11.71-18.52,15.52-24.76,31.25-49.39,46.12-74.42l22.53-37.29,21.8-37.43c29-49.68,56.26-99.35,82.33-147.57,25.65-48.44,50.11-95.44,72.34-140.51,22.5-44.93,42.79-87.9,61.4-127.61,18.4-39.81,35-76.44,49.17-109.12s26.32-61.28,36.16-84.9c19.53-47.3,29.78-74.64,29.78-74.64a2.86,2.86,0,0,1,5.36,2Z"/></g><path class="cls-9" d="M613.51,757.43l1374.58-1.21a142.4,142.4,0,0,1,142.34,135l103.23,1992.8a105,105,0,0,1-102.87,110.42l-1575.42,30a99.69,99.69,0,0,1-101.58-99.58L452,919.22A161.65,161.65,0,0,1,613.51,757.43Z"/><path class="cls-6" d="M785.59,2990h0l-176.28-2.12c-58.74-.71-106.57-49.07-106.62-107.81L502.42,2614a3.37,3.37,0,0,1,3.37-3.38h0a3.37,3.37,0,0,1,3.38,3.37l.24,266.16c0,55.06,44.87,100.4,99.93,101.06l176.29,2.12a3.38,3.38,0,0,1,0,6.75Z"/><path class="cls-6" d="M505.72,2534.88a3.39,3.39,0,0,1-3.38-3.37l0-43.11a3.38,3.38,0,0,1,3.37-3.38h0a3.39,3.39,0,0,1,3.38,3.38l0,43.1a3.39,3.39,0,0,1-3.38,3.38Z"/><path class="cls-10" d="M617.72,741.28c187.73,25.29,833.29,103.44,1366.94,62a43.41,43.41,0,0,1,46.79,40.91l108.17,2001.67a50,50,0,0,1-46.9,52.58c-224.44,13.48-1148.78,65.65-1478.52,31.41a39.58,39.58,0,0,1-35.46-39.14L564.51,788.15A46.94,46.94,0,0,1,617.72,741.28Z"/><path class="cls-11" d="M637.87,793.19c180.67,24.33,801.92,99.55,1315.47,59.66a41.79,41.79,0,0,1,45,39.37l104.09,1926.3a48.08,48.08,0,0,1-45.13,50.6c-216,13-1105.52,63.18-1422.85,30.23a38.1,38.1,0,0,1-34.12-37.67L586.66,838.3A45.19,45.19,0,0,1,637.87,793.19Z"/><path class="cls-12" d="M754,986.67l19.55,413a26.24,26.24,0,0,0,25.5,25c76.49,2.09,314.84,7.7,449.41.56a29.32,29.32,0,0,0,27.74-28.37c2.5-77.45,7.91-302.89-9.82-397.11A33.09,33.09,0,0,0,1235,972.86l-452.1-15.41A27.92,27.92,0,0,0,754,986.67Z"/><circle class="cls-13" cx="1014.3" cy="1134.09" r="88.78" transform="translate(-504.85 1049.38) rotate(-45)"/><path class="cls-14" d="M879.67,1394.88l282.85-.26a21.89,21.89,0,0,0,18.36-33.77c-24.05-37.57-74.37-92.76-161.42-90.19-83.9,2.48-133.59,52.41-158.56,88.21A22.89,22.89,0,0,0,879.67,1394.88Z"/><g class="cls-15"><path class="cls-16" d="M1887.73,1021.61a13.07,13.07,0,0,0,13.1-13.51l0-.71a14.32,14.32,0,0,0-13.9-13.72l-501-8.49c-7.43-.12-11.48,5.5-9,12.51l4.11,11.64c2.48,7,10.58,12.72,18,12.72Z"/></g><g class="cls-15"><path class="cls-16" d="M1386,1062.17c-7.43-.12-11.48,5.51-9,12.51l4.11,11.64c2.48,7,10.58,12.73,18,12.72l488.7-.43a13.07,13.07,0,0,0,13.09-13.51l0-.72a14.33,14.33,0,0,0-13.91-13.72Z"/></g><g class="cls-15"><path class="cls-16" d="M1386.07,1140.29c-7.43-.13-11.48,5.5-9,12.5l4.11,11.64c2.48,7,10.58,12.73,18,12.72l488.7-.43a13.07,13.07,0,0,0,13.09-13.51l0-.71a14.33,14.33,0,0,0-13.91-13.73Z"/></g><g class="cls-15"><path class="cls-16" d="M1936.35,1553.37a12.51,12.51,0,0,0,12.61-13.48l0-.76a14.81,14.81,0,0,0-14.41-13.57L767.86,1517.4c-7.43-.06-9.71,4.65-5.08,10.46l12.74,16c4.64,5.8,14.5,10.55,21.93,10.54Z"/></g><g class="cls-15"><path class="cls-16" d="M767.93,1594.39c-7.43-.05-9.71,4.66-5.08,10.46l12.74,16c4.63,5.81,14.5,10.55,21.93,10.54l1138.9-1a12.49,12.49,0,0,0,12.6-13.48l0-.76a14.8,14.8,0,0,0-14.4-13.57Z"/></g><path class="cls-16" d="M922.57,1891.25h-.24l-98-.86c-13.8-.12-25.21-9.59-26.52-22l-8.69-82.23a17.47,17.47,0,0,1,4.12-13.16,21.09,21.09,0,0,1,14.72-7.27h0c8.26-.57,19.89-1.58,32.21-2.64,25.92-2.23,58.17-5,76.31-5.25h.41c12.71,0,23.64,7.72,26.67,18.89,5.12,18.84,4.69,54.54,3.76,92.58C947,1881.43,935.92,1891.25,922.57,1891.25Zm-5.71-126.7h-.32c-17.9.25-50,3-75.82,5.23-12.34,1.06-24,2.07-32.32,2.64h0a14.37,14.37,0,0,0-10,4.88,10.76,10.76,0,0,0-2.58,8.11l8.69,82.23c1,9,9.5,15.91,19.87,16l98,.86c9.66.11,17.93-6.83,18.14-15.4.93-37.52,1.36-72.68-3.51-90.64C934.78,1770.24,926.52,1764.55,916.86,1764.55Z"/><g class="cls-15"><path class="cls-16" d="M1014,1806.29c-7.43,0-11.95,5.85-10,13l6.06,22.86c1.9,7.18,9.53,13,17,12.9l894.2-10.15a13.35,13.35,0,0,0,13.19-13.65l-.22-9.57a13.94,13.94,0,0,0-13.81-13.52Z"/></g><path class="cls-17" d="M823.16,1794.18h0a15,15,0,0,1,20.76,5.63l19.36,34.64a4.84,4.84,0,0,0,8.63-.38l47.86-106.81a5.36,5.36,0,0,1,10.24,2.31c-.47,32.66-9.07,94.74-61.21,146.74,0,0-28.76-11.15-52-62A15.77,15.77,0,0,1,823.16,1794.18Z"/><path class="cls-16" d="M922.75,2101.34h-.24l-98-.86c-13.81-.12-25.21-9.59-26.53-22l-8.69-82.23a17.52,17.52,0,0,1,4.12-13.16,21.16,21.16,0,0,1,14.73-7.28h0c8.25-.57,19.88-1.57,32.19-2.63,25.92-2.23,58.18-5,76.32-5.25h.43c12.7,0,23.63,7.72,26.66,18.89,5.11,18.84,4.69,54.54,3.75,92.58C947.17,2091.52,936.11,2101.34,922.75,2101.34ZM808.58,1982.51a14.35,14.35,0,0,0-10,4.88,10.78,10.78,0,0,0-2.57,8.1l8.69,82.24c1,9,9.5,15.91,19.87,16l98,.85h.18c9.72,0,17.76-6.87,18-15.39.93-37.52,1.36-72.68-3.52-90.64-2.22-8.19-10.77-14.16-20.48-13.91-17.9.24-50,3-75.84,5.23-12.33,1.06-24,2.06-32.3,2.64Z"/><path class="cls-11" d="M819.16,1991.38c20.59-1.43,65.34-6,86.57-6.3,9-.12,16.89,5.31,19,13.11,4.11,15.14,3.6,45.34,2.91,73.2-.2,8.35-7.86,15-17.22,14.94l-78.34-.69c-9.63-.08-17.63-6.64-18.54-15.19l-6.94-65.72C805.88,1997.93,811.53,1991.9,819.16,1991.38Z"/><g class="cls-15"><path class="cls-16" d="M1014.21,2016.38c-7.43,0-12,5.85-10.05,13l6.05,22.86c1.9,7.18,9.53,13,17,12.9L1921.36,2055a13.36,13.36,0,0,0,13.2-13.65l-.22-9.57a14,14,0,0,0-13.81-13.53Z"/></g><path class="cls-16" d="M922.94,2311.42h-.24l-98-.85c-13.81-.12-25.22-9.6-26.53-22l-8.69-82.24a17.48,17.48,0,0,1,4.12-13.16,21.11,21.11,0,0,1,14.72-7.27c8.27-.57,19.9-1.57,32.22-2.63,25.92-2.23,58.16-5,76.3-5.25,12.78-.17,24,7.59,27.08,18.89,5.11,18.82,4.7,54.53,3.76,92.57C947.36,2301.61,936.29,2311.42,922.94,2311.42Zm-5.72-126.69h-.31c-17.89.24-50,3-75.81,5.23-12.35,1.06-24,2.06-32.33,2.64h0a14.32,14.32,0,0,0-10,4.87,10.82,10.82,0,0,0-2.58,8.11l8.69,82.24c1,9,9.5,15.9,19.88,16l98,.85h.18c9.71,0,17.76-6.87,18-15.4.92-37.52,1.35-72.69-3.52-90.63C935.19,2190.54,926.74,2184.73,917.22,2184.73Z"/><path class="cls-11" d="M819.35,2201.46c20.59-1.42,65.34-6,86.57-6.29,9-.12,16.88,5.31,19,13.11,4.11,15.14,3.6,45.33,2.91,73.2-.21,8.35-7.87,15-17.23,14.93l-78.33-.68c-9.63-.08-17.64-6.64-18.54-15.2l-6.94-65.71C806.07,2208,811.71,2202,819.35,2201.46Z"/><g class="cls-15"><path class="cls-16" d="M1014.39,2226.47c-7.42,0-11.94,5.84-10,13l6,22.86c1.9,7.18,9.53,13,17,12.9l894.19-10.15a13.36,13.36,0,0,0,13.2-13.65l-.22-9.57a14,14,0,0,0-13.81-13.53Z"/></g><path class="cls-16" d="M923.12,2521.51h-.23l-98-.85c-13.8-.12-25.21-9.6-26.52-22l-8.69-82.24a17.45,17.45,0,0,1,4.11-13.15,21.08,21.08,0,0,1,14.73-7.28h0c8.25-.57,19.88-1.57,32.19-2.63,25.92-2.24,58.18-5,76.32-5.25,12.79-.2,24,7.59,27.09,18.89,5.11,18.84,4.69,54.54,3.76,92.57C947.55,2511.7,936.48,2521.51,923.12,2521.51ZM809,2402.69a14.29,14.29,0,0,0-10,4.88,10.79,10.79,0,0,0-2.58,8.1l8.69,82.24c1,9,9.5,15.9,19.87,16l98,.85c9.7.19,17.93-6.82,18.15-15.39.92-37.52,1.35-72.68-3.53-90.64-2.22-8.19-10.71-14.11-20.47-13.91-17.9.24-50,3-75.84,5.23-12.34,1.06-24,2.06-32.3,2.64Z"/><path class="cls-11" d="M819.53,2411.55c20.59-1.42,65.35-6,86.57-6.29,9-.12,16.89,5.31,19,13.1,4.11,15.15,3.59,45.34,2.91,73.21-.21,8.35-7.87,15-17.23,14.93l-78.33-.68c-9.64-.08-17.64-6.64-18.54-15.2L807,2424.9C806.25,2418.11,811.9,2412.08,819.53,2411.55Z"/><g class="cls-15"><path class="cls-16" d="M1014.58,2436.56c-7.43,0-12,5.84-10.05,13l6.05,22.87c1.9,7.18,9.54,13,17,12.9l894.2-10.15a13.36,13.36,0,0,0,13.19-13.66l-.22-9.56a14,14,0,0,0-13.81-13.53Z"/></g><path class="cls-18" d="M1385.81,485c-49.68-34.5-92.86-33.78-123.24-24.78a60.62,60.62,0,0,0-43,63.77l13.23,143.05,156,13.7S1483.24,552.69,1385.81,485ZM1317.32,600.5a38.89,38.89,0,1,1,38.86-38.92A38.89,38.89,0,0,1,1317.32,600.5Z"/><path class="cls-6" d="M1248.33,606.48a3.37,3.37,0,0,1-3.36-3.06l-2.11-22.78a3.38,3.38,0,0,1,6.73-.62l2.1,22.78a3.37,3.37,0,0,1-3,3.67Zm-4.13-44.64a3.37,3.37,0,0,1-3.36-3.06l-1.6-17.3a57.47,57.47,0,0,1,40.69-60.34,116.2,116.2,0,0,1,56.81-2.38,3.37,3.37,0,1,1-1.35,6.61,109.5,109.5,0,0,0-53.54,2.25A50.7,50.7,0,0,0,1246,540.86l1.6,17.3a3.38,3.38,0,0,1-3,3.67Z"/><path class="cls-19" d="M1020,759.71l-.06-71.93a43.89,43.89,0,0,1,45.35-43.9l495.91,16.55a42.67,42.67,0,0,1,41.18,40.07l4.21,69.1Z"/><path class="cls-6" d="M1183.52,670.49a3.38,3.38,0,0,1,0-6.76l21.33,0h0a3.38,3.38,0,1,1,0,6.76l-21.33,0Z"/><path class="cls-6" d="M1046.84,736.71a3.37,3.37,0,0,1-3.37-3.37l0-29.1a40.43,40.43,0,0,1,40.35-40.42l78.4-.07h0a3.38,3.38,0,0,1,0,6.76l-78.41.06a33.68,33.68,0,0,0-33.6,33.67l0,29.09a3.39,3.39,0,0,1-3.37,3.38Z"/><path class="cls-20" d="M864.62,733.52l867.16-.79a64.08,64.08,0,0,1,63.2,53.1l.74,4.24a55,55,0,0,1-54.18,64.48l-889.65.79a35.78,35.78,0,0,1-35.78-37.47L818,778.05A46.72,46.72,0,0,1,864.62,733.52Z"/><path class="cls-5" d="M3244,1894.5l-25.86,1094.4-4,168.82c0,22.12-18.14,39.6-40.26,39.6h-2176c-22.12,0-40.26-17.48-40.26-39.6l-2.45-169.14L939.45,1907.71c0-22.12,26.07-65.21,73.8-62l2126.66-55A101.5,101.5,0,0,1,3244,1894.5Z"/><path class="cls-21" d="M3160.88,3113.53c0,20.64-17.25,37.52-38.33,37.52H1049.65c-21.08,0-38.33-16.88-38.33-37.52l-17.25-1167c0-20.64,24.82-60.92,70.29-57.89l2025.87-51.36a97.78,97.78,0,0,1,70.76,27.6,93.56,93.56,0,0,1,28.36,69.19Z"/><path class="cls-5" d="M2218.45,2658.48c-.75,19.22-15.17,34.51-32.26,34.58l-1015.55,4c-19.23.08-34.74-15.82-34.62-36.27h0c.13-20.48,15.89-36.51,35.16-36.51H2188.83c17.12,0,30.36,14.95,29.62,34.19Z"/><path class="cls-5" d="M2421.68,2110.67c.12,20.79-13,37.62-29.34,37.79L1225.6,2160.72c-26.51.28-47.19-20.82-45.94-47.57h0a50.22,50.22,0,0,1,50.19-47.56L2392,2073.3c16.32.11,29.54,16.62,29.67,37.37Z"/><path class="cls-5" d="M1671.71,2804.87c-.36,16.06-12.63,29.22-27.42,29.39L1170.53,2840c-15.63.19-28.24-13.06-28.13-29.61v-1.86c.11-16.57,12.91-30.12,28.58-30.26l474.6-4.1c14.82-.13,26.52,12.82,26.16,28.9Z"/><path class="cls-5" d="M2124.49,2796.79c-.26,11.84-9.3,21.54-20.21,21.67l-349.19,4.22c-11.52.14-20.81-9.63-20.73-21.82v-1.38c.08-12.21,9.52-22.2,21.07-22.3l349.81-3c10.92-.09,19.55,9.45,19.28,21.3Z"/><path class="cls-5" d="M1668.53,2946.78c-.36,15.92-12.58,29.07-27.31,29.36l-471.77,9.53c-15.56.31-28.11-12.72-28-29.12v-1.85c.11-16.42,12.86-29.95,28.46-30.22l472.6-7.93c14.76-.25,26.42,12.49,26.06,28.43Z"/><path class="cls-6" d="M3121.3,3166.48H2890.42a3,3,0,0,1,0-6H3121.3c29.87,0,55.11-25.62,55.11-55.94V2391.92a3,3,0,0,1,6,0v712.66C3182.37,3138.13,3154.4,3166.48,3121.3,3166.48Z"/><path class="cls-6" d="M996.72,2388.94a3,3,0,0,1-3-3V1969.42c0-43.73,33-78,75-78h185.14a3,3,0,0,1,0,6H1068.78c-38.74,0-69.08,31.63-69.08,72V2386A3,3,0,0,1,996.72,2388.94Z"/><path class="cls-5" d="M2446,2916.24h-15.73c-4.34,0-8.51,2.12-8.51,5.34v131.1c0,3.22,4.17,2.58,8.51,2.58H2446c4.34,0,9.52.64,9.52-2.58v-131.1C2455.47,2918.36,2450.29,2916.24,2446,2916.24Z"/><path class="cls-5" d="M2562.4,2916.24h-22.6c-6.24,0-8.86,2.12-8.86,5.34v131.1c0,3.22,2.62,2.58,8.86,2.58h22.6c6.24,0,8.26.64,8.26-2.58v-131.1C2570.66,2918.36,2568.64,2916.24,2562.4,2916.24Z"/><path class="cls-5" d="M2485.26,2916.24h-7.86c-2.17,0-10,2.12-10,5.34v131.1c0,3.22,7.84,2.58,10,2.58h7.86c2.17,0,2,.64,2-2.58v-131.1C2487.25,2918.36,2487.43,2916.24,2485.26,2916.24Z"/><path class="cls-5" d="M2512.77,2916.24h-7.86c-2.17,0,.21,2.12.21,5.34v131.1c0,3.22-2.38,2.58-.21,2.58h7.86c2.18,0,2.29.64,2.29-2.58v-131.1C2515.06,2918.36,2515,2916.24,2512.77,2916.24Z"/><path class="cls-5" d="M2599.26,2916.24h-7.87a5.27,5.27,0,0,0-4.84,5.34v131.1c0,3.22,2.67,2.58,4.84,2.58h7.87c2.17,0,3.18.64,3.18-2.58v-131.1C2602.44,2918.36,2601.43,2916.24,2599.26,2916.24Z"/><path class="cls-5" d="M2654.29,2916.24h-7.86c-2.17,0-.3,2.12-.3,5.34v131.1c0,3.22-1.87,2.58.3,2.58h7.86c2.17,0,5.75.64,5.75-2.58v-131.1C2660,2918.36,2656.46,2916.24,2654.29,2916.24Z"/><path class="cls-5" d="M2625.79,2916.24H2616c-2.71,0,.38,2.12.38,5.34v131.1c0,3.22-3.09,2.58-.38,2.58h9.83c2.71,0,4.46.64,4.46-2.58v-131.1C2630.25,2918.36,2628.5,2916.24,2625.79,2916.24Z"/><path class="cls-5" d="M2697.53,2916.24h-15.72c-4.35,0-11.84,2.12-11.84,5.34v131.1c0,3.22,7.49,2.58,11.84,2.58h15.72c4.34,0,12.16.64,12.16-2.58v-131.1C2709.69,2918.36,2701.87,2916.24,2697.53,2916.24Z"/><path class="cls-5" d="M2814,2916.24h-22.6c-6.24,0-14.17,2.12-14.17,5.34v131.1c0,3.22,7.93,2.58,14.17,2.58H2814c6.25,0,6.93.64,6.93-2.58v-131.1C2820.91,2918.36,2820.23,2916.24,2814,2916.24Z"/><path class="cls-5" d="M2736.84,2916.24H2729c-2.17,0-3.4,2.12-3.4,5.34v131.1c0,3.22,1.23,2.58,3.4,2.58h7.86c2.17,0,4.62.64,4.62-2.58v-131.1C2741.46,2918.36,2739,2916.24,2736.84,2916.24Z"/><path class="cls-5" d="M2764.36,2916.24h-7.87c-2.17,0-1.12,2.12-1.12,5.34v131.1c0,3.22-1,2.58,1.12,2.58h7.87c2.17,0,2.92.64,2.92-2.58v-131.1C2767.28,2918.36,2766.53,2916.24,2764.36,2916.24Z"/><path class="cls-5" d="M2850.84,2916.24H2843c-2.17,0-6.18,2.12-6.18,5.34v131.1c0,3.22,4,2.58,6.18,2.58h7.87c2.17,0,5.82.64,5.82-2.58v-131.1C2856.66,2918.36,2853,2916.24,2850.84,2916.24Z"/><path class="cls-5" d="M2905.87,2916.24H2898c-2.17,0-5.61,2.12-5.61,5.34v131.1c0,3.22,3.44,2.58,5.61,2.58h7.86c2.17,0,6.39.64,6.39-2.58v-131.1C2912.26,2918.36,2908,2916.24,2905.87,2916.24Z"/><path class="cls-5" d="M2877.37,2916.24h-9.83c-2.71,0-.95,2.12-.95,5.34v131.1c0,3.22-1.76,2.58.95,2.58h9.83c2.71,0,7.09.64,7.09-2.58v-131.1C2884.46,2918.36,2880.08,2916.24,2877.37,2916.24Z"/><path class="cls-5" d="M2949.11,2916.24h-15.72c-4.35,0-7.22,2.12-7.22,5.34v131.1c0,3.22,2.87,2.58,7.22,2.58h15.72c4.34,0,10.82.64,10.82-2.58v-131.1C2959.93,2918.36,2953.45,2916.24,2949.11,2916.24Z"/><path class="cls-5" d="M3065.56,2916.24H3043c-6.24,0-11.53,2.12-11.53,5.34v131.1c0,3.22,5.29,2.58,11.53,2.58h22.6c6.25,0,9.56.64,9.56-2.58v-131.1C3075.12,2918.36,3071.81,2916.24,3065.56,2916.24Z"/><path class="cls-5" d="M2988.42,2916.24h-7.86a5.19,5.19,0,0,0-4.74,5.34v131.1c0,3.22,2.57,2.58,4.74,2.58h7.86c2.17,0,7.26.64,7.26-2.58v-131.1C2995.68,2918.36,2990.59,2916.24,2988.42,2916.24Z"/><path class="cls-5" d="M3015.94,2916.24h-7.87c-2.17,0-2.46,2.12-2.46,5.34v131.1c0,3.22.29,2.58,2.46,2.58h7.87c2.17,0,5.56.64,5.56-2.58v-131.1C3021.5,2918.36,3018.11,2916.24,3015.94,2916.24Z"/><path class="cls-8" d="M3019.27,2244.78H2823.1V2048.61a14.83,14.83,0,0,0-14.83-14.83h-89a14.83,14.83,0,0,0-14.84,14.83v196.17H2508.24a14.83,14.83,0,0,0-14.83,14.84v89a14.83,14.83,0,0,0,14.83,14.83h196.17v196.17a14.83,14.83,0,0,0,14.84,14.84h89a14.83,14.83,0,0,0,14.83-14.84V2363.47h196.17a14.83,14.83,0,0,0,14.84-14.83v-89A14.83,14.83,0,0,0,3019.27,2244.78Z"/><path class="cls-6" d="M1731.05,2119.9l-29.23,7.13c-35.61,10.73-65.7,13.47-91.43,10.74-80.33-8.5-118-70.38-147.89-109.73-39.41-52-82.93-43-82.93-43l26.63,114.64c59.6,95,144.85,99.49,202.15,88.63,36.48-6.91,61.64-20,61.64-20C1737.07,2148.75,1731.05,2119.9,1731.05,2119.9Z"/><path class="cls-22" d="M1797.18,2175.67a19.49,19.49,0,0,0-7.91-15l-46.59-34.46s1-6.87,13.91-8.35,13.63-15.38,13.63-15.38-18,3.16-44.58,8.68c-15.21,3.15-25.82,12.94-32.13,20.75l8.81,21.1c29.56,18,61.54,28.25,95.26,32.94Z"/><polygon class="cls-6" points="1102.15 2810.11 1333.45 2819.05 1333.45 2734.5 1138.13 2716.62 1102.15 2810.11"/><path class="cls-23" d="M1339.59,1721.24s-58.81,19.6-96.9,103.61c-10.41,23-67,27-72.8,74.16-3,24.32-21,43.8-45.24,47.52-60.35,9.25-153.35,40.58-168.23,145.35-11.35,80,29.41,110.3,72.2,120.8,31.42,7.7,52.31,38.27,46,70-6.1,30.43,3,65.6,55.71,93.42,118.14,62.34,236.12-147.68,236.12-147.68l24.18-366.7Z"/><path class="cls-24" d="M995.29,3198.66l-4.77,39.21A16.19,16.19,0,0,1,976.31,3252c-12.56,1.43-32.74,2.91-52.47.82a13.87,13.87,0,0,1-11.65-18c4.81-15.13,13.61-37.86,26.3-51.23H982A13.4,13.4,0,0,1,995.29,3198.66Z"/><path class="cls-25" d="M1336,2739.35l7.34,43.18s-24.58,249-29,348.63a78,78,0,0,0,11.55,44.36l42.75,69.42L1260,3180.83l-2.16-13.25,17.78-24.46-23.29-279a85.56,85.56,0,0,1,9.74-47.34l22.47-42.21Z"/><path class="cls-26" d="M1375.8,3255h-34.67a20.89,20.89,0,0,1-16.57-8.12c-10.81-14.05-33.2-41.45-43.91-42.16-14.41-1-12.57,50.28-12.57,50.28H1260l-10.23-63.68a37.69,37.69,0,0,1,19.78-39.4h0s3.29,24.37,21.16,35.15,72.71,49.38,72.71,49.38a49.52,49.52,0,0,1,14.09.37C1388.45,3238.8,1386.92,3255,1375.8,3255Z"/><path class="cls-27" d="M1187.15,2759.86s-144,273.2-166.92,335.57S989.32,3209.85,989,3214.77c-.48,7.7-10,15.09-36.45,15.09-13.63,0-20.3-5.46-23.56-10.75a15.37,15.37,0,0,1-.59-14.9c8.33-16.86,34.77-70.75,44.57-95.18,11.69-29.18,36.83-161.41,50.63-207.39s29.38-95.85,89.44-141.78C1113.05,2759.86,1154.27,2719.48,1187.15,2759.86Z"/><path class="cls-28" d="M1278.14,2312.2c37.15-157.43-57-246.47-57-246.47,38-36.49,96.06-60.26,132.89-72.63a63.36,63.36,0,0,1,63,13.21c29.59,27,70.74,72.51,62.75,111.05-7.18,34.62-72.57,207.41-72.57,207.41S1346.72,2353.39,1278.14,2312.2Z"/><path class="cls-29" d="M1195.77,2390.14c15.12-45.55,82.37-77.94,82.37-77.94,68.58,41.19,129,12.57,129,12.57s13.56,51.84,4.2,100-68.09,357.75-68.09,357.75c-92.52,18.75-234.83-18.86-234.83-18.86C1167.41,2659,1180.65,2435.69,1195.77,2390.14Z"/><path class="cls-30" d="M1321.26,1878.76l-30.2,135.67c-2.9,12,8,10,20.08,7.72,19.79-3.73,45.29-11.41,53.82-26.81a14.7,14.7,0,0,0,1.54-5.11l13-94.08a16.92,16.92,0,0,0-9.89-17.77l-25-11.1A16.91,16.91,0,0,0,1321.26,1878.76Z"/><path class="cls-31" d="M1400.34,1770.6s25.49,29.29,24.62,86.41-27.68,70.58-49.61,63.5-52.37-22.53-70.11-68.39S1366.43,1734.08,1400.34,1770.6Z"/><path class="cls-32" d="M1339.16,1838s9-79.79,69.62-51.12l9.33,16.84s40.52-26.86,13.05-62.58-77.19-41.65-116.54-.34-58,72.74-43.74,108.69,37.79,14.61,37.79,14.61-3.28-28.71,8.13-37.63,17.64,11.64,17.64,11.64Z"/><path class="cls-33" d="M1328.7,1842.26s4.87-41-18.3-35.06-2.53,38.83,6.16,50.46Z"/><path class="cls-34" d="M1367.73,1725.6c-14.17,4.65-26.82,13.13-38.31,22.51a164.34,164.34,0,0,0-50,72.5,162.09,162.09,0,0,0-5.64,21.52c-1.43,7.32-2.62,14.8-4.89,22.15s-5.82,14.56-11.34,20.17-12,9.83-18.69,13.43-13.5,6.72-19.92,10.36a81.74,81.74,0,0,0-39.41,50.43c-2,7.11-3.57,14.52-6.25,21.8s-6.77,14.45-13,19.51-13.54,8.25-20.9,10.37a213.32,213.32,0,0,1-22.27,4.61,184.29,184.29,0,0,0-42.76,11.9,148.2,148.2,0,0,0-37.83,22.85A108.35,108.35,0,0,0,1009,2084c-6.59,13.12-9.7,28.05-7.75,42.61s8.41,28.6,19.26,38.44a47.49,47.49,0,0,0,18.77,10.8,49.83,49.83,0,0,0,21.77,1c14.44-2.27,28.28-11.51,33.71-25.44l1.1.4c-5.32,14.53-19.49,24.43-34.43,27.08a52.29,52.29,0,0,1-22.81-.61,50.28,50.28,0,0,1-20.1-11c-11.62-10.27-18.35-25.11-20.58-40.2-2.15-15.26,1-31,7.78-44.67a112.05,112.05,0,0,1,28.19-35.65,152.14,152.14,0,0,1,38.73-23.77,188.85,188.85,0,0,1,43.64-12.48,211.51,211.51,0,0,0,21.74-4.64c7-2.07,13.7-5,19.06-9.57s9.15-10.64,11.66-17.45,4.15-14.1,6.28-21.4a86.13,86.13,0,0,1,41.85-52.79c6.67-3.71,13.53-6.78,20.08-10.25s12.81-7.36,17.8-12.56,8.41-11.63,10.59-18.61,3.46-14.35,5-21.73a165.39,165.39,0,0,1,5.92-21.92,159.5,159.5,0,0,1,51.85-73c11.85-9.25,24.78-17.55,39.3-22Z"/><path class="cls-34" d="M1288,1828.38c-.47,9.66-1,19.36-2.83,29s-4.56,19.2-9.78,27.77a55.67,55.67,0,0,1-9.44,11.66,98.8,98.8,0,0,1-11.66,9.14c-8.11,5.44-16,10.69-23.16,16.94-14.33,12.28-26.36,27.66-30.13,46.05-4.31,18.2-3.14,38.33-11.23,57.35a61.68,61.68,0,0,1-18.89,23.71,97.25,97.25,0,0,1-26.29,14.19c-18.73,6.76-38.14,9.14-56.75,13.38-18.44,4.18-36.91,11.23-50,24.89-6.32,6.73-11.9,15.07-12,24.37s4.25,18.3,8.5,26.87l-1,.55c-4.76-8.3-9.79-17.15-10.14-27.41a31.53,31.53,0,0,1,3.4-14.67,56.63,56.63,0,0,1,8.37-12.38c13.52-15,32.77-22.78,51.56-27.6,18.89-5,38.2-7.25,55.85-13.94a90.86,90.86,0,0,0,24.43-13.43,55.21,55.21,0,0,0,16.72-21.29c7.5-16.86,6.71-36.72,11.32-56a77.22,77.22,0,0,1,12.28-27.33,105.48,105.48,0,0,1,20.47-21.49c7.59-6.25,16-11.53,24.06-16.65s15.39-11,20.42-19c5.22-7.78,8.37-16.9,10.49-26.2s3.2-18.94,4.28-28.54Z"/><path class="cls-35" d="M1352.57,2118.72l-56.8-125.44c-24.23,6.21-75.23,73.85-75.23,73.85s49.21,203.42.63,257.62c-43.12,48.11-151.2,400.29-174.94,478.81a13.35,13.35,0,0,0,11.4,17.15l118.2,12.17a13.35,13.35,0,0,0,14.26-9.83l168.5-631.15A109.16,109.16,0,0,0,1352.57,2118.72Z"/><path class="cls-6" d="M1480.77,2136.14s20-68.87-70.59-135.25c0,0-39.07-29.74-43.68-10.66l32.25,154.43-100.09,682.68a13.33,13.33,0,0,0,16.43,14.88l24.64-6.16a13.36,13.36,0,0,0,9.82-10.18c14-65.91,107.08-509.67,79.78-538.91C1429.33,2287,1483,2149.81,1480.77,2136.14Z"/><path class="cls-36" d="M1220.54,2067.13s-59.2,238.75,67.09,284.14,288.09-71,288.09-71,27.62-13.81,43.41-9.86,13.81-55.25-15.79-71-63.14,51.3-63.14,51.3-277.5,138.26-252.21-99.58C1288,2151.05,1325.12,2071.07,1220.54,2067.13Z"/><path class="cls-37" d="M1398.37,2414.47,1467,2174.7a7,7,0,0,1,5.92-5c12.44-1.46,48.48-5.53,90.1-9.05,50.13-4.24,108.35-7.68,143.13-4.75a7,7,0,0,1,5.74,10.09c-19.78,40-101.16,202.83-141.91,256.16a7,7,0,0,1-5.66,2.78l-159.3-1.48A7,7,0,0,1,1398.37,2414.47Z"/><path class="cls-38" d="M1570.17,2139.83l49.78-8.29a3.57,3.57,0,0,1,4,4.64l-4.93,14.93a3.59,3.59,0,0,1-2.92,2.43l-47.9,6.39a3.57,3.57,0,0,1-4-4.35l3-13A3.59,3.59,0,0,1,1570.17,2139.83Z"/><path class="cls-39" d="M1532.9,2182l4.1-21.36a4.94,4.94,0,0,1,4.35-4l100.54-10.2a4.94,4.94,0,0,1,5.3,6.06l-6.39,26.62a4.94,4.94,0,0,1-4.56,3.78l-98.24,5A4.94,4.94,0,0,1,1532.9,2182Z"/><path class="cls-40" d="M1415,2356.54s-9.56-39.33-5.7-53.28,11.33-31.89,36.24-27.9,54.31,14.48,54.31,14.48-1.48,18.17-20.42,12.31l11.74,9.09s-1.68,14.55-17.67,6.77l10.92,12s-6.87,12-18.64,4.29S1448.33,2361.28,1415,2356.54Z"/><path class="cls-8" d="M1314.14,2353.47H1314c-57.5,0-79.49-43.51-79.7-44-.77-1.62-.08-1.51,1.54-2.28s3.56.94,4.33,2.56c.2.42,20.65,42.42,74.12,44.87,1.8.08,3.19-2.23,3.1-.44S1315.87,2353.47,1314.14,2353.47Z"/><path class="cls-8" d="M1335.11,2278.05a3.23,3.23,0,0,1-1.5-.37c-63.94-33.34-47.49-128.5-46.76-132.53a3.25,3.25,0,0,1,6.4,1.15c-.17.95-16.31,94.49,43.37,125.61a3.25,3.25,0,0,1-1.51,6.14Z"/><path class="cls-6" d="M1362.28,2137.76c-11-35-66.51-144.48-66.51-144.48l-22.47,14.46,41.13,128.87a13.33,13.33,0,0,0,12.7,9.28,5.86,5.86,0,0,1,5.85,5.48l7.12,109.79S1373.25,2172.72,1362.28,2137.76Z"/><path class="cls-41" d="M1424.2,2105.3a19.35,19.35,0,0,0,.57-13.33l-34.19-107.42-21-16.76-2.32,16.76,19,100.37-6.71,182.92,35.52-98.24a19.41,19.41,0,0,0-.62-14.72l-2.16-4.69a19.41,19.41,0,0,1-.3-15.56Z"/></g></g></svg>