<svg xmlns="http://www.w3.org/2000/svg" xmlns:xlink="http://www.w3.org/1999/xlink" viewBox="0 0 3710 3710"><defs><style>.cls-1{isolation:isolate;}.cls-2{fill:url(#linear-gradient);}.cls-3{fill:#bdd0fb;}.cls-4{fill:#7d97f4;}.cls-10,.cls-11,.cls-5,.cls-8,.cls-9{fill:#fff;}.cls-5{mix-blend-mode:soft-light;}.cls-12,.cls-6{fill:#91b3fa;}.cls-7{fill:url(#linear-gradient-2);}.cls-8{opacity:0.49;}.cls-9{opacity:0.66;}.cls-10{opacity:0.82;}.cls-12{opacity:0.3;mix-blend-mode:multiply;}.cls-13{fill:url(#linear-gradient-3);}.cls-14{fill:url(#linear-gradient-4);}.cls-15{fill:url(#linear-gradient-5);}.cls-16{fill:url(#linear-gradient-6);}.cls-17{fill:url(#linear-gradient-7);}.cls-18{fill:url(#linear-gradient-8);}.cls-19{fill:url(#linear-gradient-9);}.cls-20{fill:url(#linear-gradient-10);}.cls-21{fill:url(#linear-gradient-11);}.cls-22{fill:url(#linear-gradient-12);}.cls-23{fill:url(#linear-gradient-13);}.cls-24{fill:url(#linear-gradient-14);}.cls-25{fill:url(#linear-gradient-15);}.cls-26{fill:url(#linear-gradient-16);}.cls-27{fill:url(#linear-gradient-17);}.cls-28{fill:url(#linear-gradient-18);}.cls-29{fill:url(#linear-gradient-19);}.cls-30{fill:url(#linear-gradient-20);}.cls-31{fill:url(#linear-gradient-21);}.cls-32{fill:url(#linear-gradient-22);}.cls-33{fill:url(#linear-gradient-23);}.cls-34{fill:url(#linear-gradient-24);}.cls-35{fill:url(#linear-gradient-25);}.cls-36{fill:url(#linear-gradient-26);}.cls-37{fill:url(#linear-gradient-27);}.cls-38{fill:url(#linear-gradient-28);}.cls-39{fill:url(#linear-gradient-29);}.cls-40{fill:url(#linear-gradient-30);}.cls-41{fill:url(#linear-gradient-31);}.cls-42{fill:url(#linear-gradient-32);}.cls-43{fill:url(#linear-gradient-33);}.cls-44{fill:url(#linear-gradient-34);}.cls-45{fill:url(#linear-gradient-35);}.cls-46{fill:url(#linear-gradient-36);}.cls-47{fill:url(#linear-gradient-37);}.cls-48{fill:url(#linear-gradient-38);}.cls-49{fill:url(#linear-gradient-39);}.cls-50{fill:url(#linear-gradient-40);}</style><linearGradient id="linear-gradient" x1="3474.78" y1="3646.8" x2="1555.81" y2="1604.02" gradientUnits="userSpaceOnUse"><stop offset="0" stop-color="#dae3fe"/><stop offset="1" stop-color="#e9effd"/></linearGradient><linearGradient id="linear-gradient-2" x1="2343.45" y1="-2.72" x2="428.17" y2="4334.37" gradientUnits="userSpaceOnUse"><stop offset="0" stop-color="#4f52ff"/><stop offset="1" stop-color="#4042e2"/></linearGradient><linearGradient id="linear-gradient-3" x1="3394.34" y1="616.74" x2="2421.54" y2="2135.92" gradientUnits="userSpaceOnUse"><stop offset="0" stop-color="#09005d"/><stop offset="1" stop-color="#1a0f91"/></linearGradient><linearGradient id="linear-gradient-4" x1="3521.24" y1="698.01" x2="2548.43" y2="2217.19" xlink:href="#linear-gradient-3"/><linearGradient id="linear-gradient-5" x1="3256.45" y1="528.45" x2="2283.64" y2="2047.62" xlink:href="#linear-gradient-3"/><linearGradient id="linear-gradient-6" x1="6604.43" y1="-8468.83" x2="5998.09" y2="-7282.8" gradientTransform="matrix(-1, 0, 0, 1, 3293.27, 0)" xlink:href="#linear-gradient-3"/><linearGradient id="linear-gradient-7" x1="531.97" y1="3091.39" x2="598.38" y2="3091.39" gradientTransform="matrix(-1, 0, 0, 1, 3293.27, 0)" gradientUnits="userSpaceOnUse"><stop offset="0" stop-color="#febbba"/><stop offset="1" stop-color="#ff928e"/></linearGradient><linearGradient id="linear-gradient-8" x1="14671.96" y1="-9839.82" x2="16277.76" y2="-11245.73" gradientTransform="matrix(-1, 0, 0, 1, 3293.27, 0)" xlink:href="#linear-gradient-2"/><linearGradient id="linear-gradient-9" x1="6355.15" y1="-8596.24" x2="5748.81" y2="-7410.22" gradientTransform="matrix(-1, 0, 0, 1, 3293.27, 0)" xlink:href="#linear-gradient-3"/><linearGradient id="linear-gradient-10" x1="292.64" y1="3087.99" x2="349.98" y2="3087.99" xlink:href="#linear-gradient-7"/><linearGradient id="linear-gradient-11" x1="14598.56" y1="-9923.64" x2="16204.35" y2="-11329.54" gradientTransform="matrix(-1, 0, 0, 1, 3293.27, 0)" xlink:href="#linear-gradient-2"/><linearGradient id="linear-gradient-12" x1="-772.79" y1="1772.77" x2="-374.33" y2="2242.44" gradientTransform="matrix(-1, 0, 0, 1, 1833.52, 0)" xlink:href="#linear-gradient-7"/><linearGradient id="linear-gradient-13" x1="-771.02" y1="1859.68" x2="-422.19" y2="2270.85" gradientTransform="matrix(-1, 0, 0, 1, 1833.52, 0)" xlink:href="#linear-gradient-7"/><linearGradient id="linear-gradient-14" x1="62.87" y1="1839.48" x2="492.2" y2="1839.48" xlink:href="#linear-gradient-7"/><linearGradient id="linear-gradient-15" x1="392.54" y1="1398.54" x2="562.28" y2="1398.54" xlink:href="#linear-gradient-7"/><linearGradient id="linear-gradient-16" x1="-4765.06" y1="-1455.1" x2="-4828.49" y2="-1664.31" gradientTransform="matrix(-0.75, -0.67, -0.67, 0.75, -1833.07, -803.17)" xlink:href="#linear-gradient-7"/><linearGradient id="linear-gradient-17" x1="-4822.29" y1="-1819.62" x2="-4769.23" y2="-1516.98" gradientTransform="matrix(-0.75, -0.67, -0.67, 0.75, -1833.07, -803.17)" xlink:href="#linear-gradient-3"/><linearGradient id="linear-gradient-18" x1="-4829.9" y1="-1456.07" x2="-4886.97" y2="-1644.3" gradientTransform="matrix(-0.75, -0.67, -0.67, 0.75, -1833.07, -803.17)" xlink:href="#linear-gradient-7"/><linearGradient id="linear-gradient-19" x1="-882.13" y1="2501.45" x2="-159.59" y2="1957.04" gradientTransform="matrix(-1, 0, 0, 1, 1833.52, 0)" xlink:href="#linear-gradient-7"/><linearGradient id="linear-gradient-20" x1="-361.21" y1="2316.4" x2="-353.38" y2="1893.67" gradientTransform="matrix(-1, 0, 0, 1, 1833.52, 0)" xlink:href="#linear-gradient-3"/><linearGradient id="linear-gradient-21" x1="381.38" y1="2158.66" x2="-571.8" y2="1419.06" gradientTransform="matrix(-1, 0, 0, 1, 1833.52, 0)" xlink:href="#linear-gradient-3"/><linearGradient id="linear-gradient-22" x1="21244.26" y1="1909.74" x2="20743.58" y2="2195.53" gradientTransform="translate(-16958.12 -5556.58) rotate(17.4)" xlink:href="#linear-gradient-7"/><linearGradient id="linear-gradient-23" x1="-10671.85" y1="-5224.99" x2="-10710.28" y2="-4635.74" gradientTransform="matrix(-0.72, -0.69, -0.69, 0.72, -8734.12, -715.71)" gradientUnits="userSpaceOnUse"><stop offset="0" stop-color="#e1473d"/><stop offset="1" stop-color="#e9605a"/></linearGradient><linearGradient id="linear-gradient-24" x1="21181.77" y1="1977.71" x2="22894.46" y2="905.53" gradientTransform="matrix(0.96, 0.29, -0.29, 0.96, -17024.67, -5352.82)" xlink:href="#linear-gradient-7"/><linearGradient id="linear-gradient-25" x1="-8791.35" y1="-7917.63" x2="-8829.77" y2="-7328.5" gradientTransform="matrix(-0.58, -0.82, -0.82, 0.58, -9061.98, 378.33)" xlink:href="#linear-gradient-23"/><linearGradient id="linear-gradient-26" x1="12554.7" y1="2179.32" x2="12047.19" y2="3096.74" gradientTransform="translate(-10400.88)" xlink:href="#linear-gradient-23"/><linearGradient id="linear-gradient-27" x1="2667.84" y1="992.39" x2="2214.75" y2="1725.33" gradientUnits="userSpaceOnUse"><stop offset="0" stop-color="#ff928e"/><stop offset="1" stop-color="#fe7062"/></linearGradient><linearGradient id="linear-gradient-28" x1="-11887.49" y1="1987.95" x2="-11921.5" y2="1769.71" gradientTransform="matrix(-1, 0, 0, 1, -9836.12, 0)" xlink:href="#linear-gradient-7"/><linearGradient id="linear-gradient-29" x1="-11730.5" y1="2266.19" x2="-11231.85" y2="2266.19" gradientTransform="matrix(-1, 0, 0, 1, -9836.12, 0)" xlink:href="#linear-gradient-7"/><linearGradient id="linear-gradient-30" x1="-4944.32" y1="-28.19" x2="-4687.07" y2="-486.01" gradientTransform="matrix(-0.79, -0.61, -0.61, 0.79, -1817.2, -1124.18)" xlink:href="#linear-gradient-7"/><linearGradient id="linear-gradient-31" x1="373.19" y1="2169.21" x2="-579.99" y2="1429.61" gradientTransform="matrix(-1, 0, 0, 1, 1833.52, 0)" xlink:href="#linear-gradient-3"/><linearGradient id="linear-gradient-32" x1="-4906.65" y1="16.44" x2="-4649.4" y2="-441.37" gradientTransform="matrix(-0.79, -0.61, -0.61, 0.79, -1817.2, -1124.18)" xlink:href="#linear-gradient-7"/><linearGradient id="linear-gradient-33" x1="1755.85" y1="1852.41" x2="2178.41" y2="1852.41" gradientTransform="translate(547.4)" gradientUnits="userSpaceOnUse"><stop offset="0" stop-color="#2b3582"/><stop offset="1" stop-color="#150e42"/></linearGradient><linearGradient id="linear-gradient-34" x1="1693.69" y1="2214.41" x2="1760.59" y2="2214.41" gradientTransform="translate(547.4)" xlink:href="#linear-gradient-3"/><linearGradient id="linear-gradient-35" x1="-401.09" y1="2234.76" x2="-546.73" y2="2137.15" gradientTransform="matrix(-1, 0, 0, 1, 1833.52, 0)" xlink:href="#linear-gradient-7"/><linearGradient id="linear-gradient-36" x1="3162.05" y1="950.26" x2="2868.88" y2="1430" xlink:href="#linear-gradient-3"/><linearGradient id="linear-gradient-37" x1="2609.23" y1="1494.84" x2="2555.92" y2="1801.34" xlink:href="#linear-gradient-2"/><linearGradient id="linear-gradient-38" x1="2606.81" y1="1592.8" x2="2510.19" y2="1819.34" xlink:href="#linear-gradient-2"/><linearGradient id="linear-gradient-39" x1="426.2" y1="1823.19" x2="559.96" y2="1823.19" xlink:href="#linear-gradient-7"/><linearGradient id="linear-gradient-40" x1="2146.55" y1="1387.9" x2="2293.35" y2="1387.9" xlink:href="#linear-gradient-33"/></defs><title>checkArtboard 35</title><g class="cls-1"><g id="Illustration"><path class="cls-2" d="M2898.61,2827.25c-70.84,73-134.23,115.94-182.76,148.34-473.3,316-1014.34,224.95-1181.62,193.81-269.88-50.23-497.7-85.66-693.43-262.5C396,2505.07,417.67,1666.82,757.52,1147.56,797.82,1086,1137.16,583,1679.37,512.11c13.26-1.74,23.16-2.72,31.83-3.64,83.87-8.88,603.65-55.75,1027.48,299.33,60.67,50.83,158.31,142.51,248.85,282.34C3318.57,1601.42,3319.62,2393.28,2898.61,2827.25Z"/><path class="cls-3" d="M2717.6,1160.21l-.66,0a12.61,12.61,0,0,1-12.07-12.11L2692.6,761l-28.77,191a12.75,12.75,0,0,1-25.27-.78l-24.33-281.46-31.35,333.57a12.59,12.59,0,0,1-10.23,11.13,12.81,12.81,0,0,1-13.74-6.5l-84.36-159.39H1623.7l-51.16,276.52a12.76,12.76,0,0,1-25.15-.63l-66.67-506.53-65.83,194.4a12.76,12.76,0,0,1-13.76,8.45,12.61,12.61,0,0,1-11-11.71l-13.5-237.7-75.14,425.07a12.78,12.78,0,0,1-24.86,1l-57.19-215.52L1170,878.29a12.75,12.75,0,0,1-11.37,6.88H965.83a12.52,12.52,0,1,1,0-25h184.94l61.08-119.06a12.81,12.81,0,0,1,23.69,2.48l50.89,191.76,84.13-476a12.75,12.75,0,0,1,25.25,1.44l16,281.44,62.32-184.05a12.78,12.78,0,0,1,24.71,2.35l63.3,481,38.41-207.63a12.67,12.67,0,0,1,12.53-10.27h869.19a12.76,12.76,0,0,1,11.3,6.73l67.94,128.36,40.57-431.72a12.65,12.65,0,0,1,12.68-11.36h0A12.65,12.65,0,0,1,2627.44,527l27.23,315,33.62-223.22a12.75,12.75,0,0,1,25.32,1.44l11.87,374.66,35.79-263.79a12.66,12.66,0,0,1,12.62-10.86h0a12.66,12.66,0,0,1,12.59,10.92l26.6,204.56,25.1-96.28a12.8,12.8,0,0,1,24.33-1.08l82.5,228.21,86.32-226.26a12.71,12.71,0,0,1,11.92-8.12h179.57a12.51,12.51,0,1,1,0,25H3052.11l-95.46,250.23a12.92,12.92,0,0,1-12,8.12,12.72,12.72,0,0,1-11.88-8.32l-80.21-221.85-31.26,119.93a12.77,12.77,0,0,1-25-1.52l-22.68-174.42-43.42,320A12.67,12.67,0,0,1,2717.6,1160.21Z"/><path class="cls-4" d="M542.74,466c-3.4-9.15,7.09-17.22,15.16-11.73,81.85,55.83,284.73,229.62,297,587,15.34,448.35,132.15,594.53,261.57,674.57,0,0-163.88-21.5-288-168.95C523.77,1184.88,603.14,628.67,542.74,466Z"/><path class="cls-5" d="M618.58,595c16.6,47.57,32.25,95.46,46.13,143.84q21.21,72.45,37.93,146.05c10.93,49.07,21,98.34,28.86,148,8.13,49.59,14.12,99.47,20,149.57,6.11,50,12,100.48,23,150.48s28.11,99.29,53.75,144.08c6.41,11.17,13,22.26,20.26,32.84,7,10.73,14.53,21.15,22.22,31.43a548.58,548.58,0,0,0,50.57,58.13c36.57,36.22,78.63,66.85,123.51,91.31a9.74,9.74,0,0,0,9.57-17l0,0c-10.75-6.26-21.41-12.63-31.75-19.46-5.23-3.33-10.29-6.89-15.43-10.35-5-3.65-10.13-7.1-15-10.91a512.68,512.68,0,0,1-55.85-48.64c-34.93-34.87-64.83-75.13-89.4-117.89a492,492,0,0,1-31.17-67,556.71,556.71,0,0,1-21.12-71.13c-11.11-48.47-17.34-98.35-23.81-148.34s-13.46-100.19-22.43-150q-6.63-37.38-14.59-74.51c-2.59-12.39-5.41-24.72-8.21-37.06s-5.9-24.6-9-36.86Q698,807.93,674.82,735.69c-15.67-48.06-32.61-95.68-51.35-142.57a2.61,2.61,0,0,0-4.89,1.83Z"/><path class="cls-6" d="M866.69,2419.69c-7.74,21.63-35.06,28.32-52.13,12.93-94.15-84.88-338.66-348.95-316.25-786,18.93-369.07-5.88-571-23.49-661.88-3.73-19.22,19.25-32,33.66-18.77C667.47,1112.14,1147.46,1636,866.69,2419.69Z"/><path class="cls-5" d="M835.59,2420a9.35,9.35,0,0,1-1.53.82,9,9,0,0,1-11.74-4.81c-2.17-5.18-216.82-523.91-213.69-1038.27a9,9,0,1,1,17.94.11c-3.11,510.61,210.14,1026.09,212.3,1031.23A9,9,0,0,1,835.59,2420Z"/><rect class="cls-7" x="732.26" y="465.5" width="1656.47" height="2609.55" rx="30.07" ry="30.07"/><rect class="cls-6" x="884.82" y="623.21" width="1348.38" height="1862.39" rx="32.47" ry="32.47"/><rect class="cls-8" x="915.77" y="667.07" width="1284.47" height="1774.12" rx="32.47" ry="32.47"/><rect class="cls-4" x="1190.86" y="2560.88" width="767.99" height="232.58" rx="70.26" ry="70.26"/><circle class="cls-9" cx="1580.77" cy="2677.73" r="92.21" transform="translate(-1430.44 1902.06) rotate(-45)"/><circle class="cls-10" cx="1578.99" cy="2677.16" r="68.01" transform="matrix(0.16, -0.99, 0.99, 0.16, -1316.53, 3806.93)"/><path class="cls-9" d="M1746.54,2748,1738,2610a13.62,13.62,0,0,1,20.06-12.82l127.65,69a13.62,13.62,0,0,1,.35,23.76l-119.06,69A13.61,13.61,0,0,1,1746.54,2748Z"/><path class="cls-9" d="M1415,2748l8.59-138a13.62,13.62,0,0,0-20.07-12.82l-127.64,69a13.61,13.61,0,0,0-.36,23.76l119.07,69A13.61,13.61,0,0,0,1415,2748Z"/><path class="cls-11" d="M1902.69,1878.9c.45,46.24-5.13,81.08-12.46,77.51s-13.56-44.19-13.9-90.42c-.35-45.88,5.24-79.94,12.47-76.38S1902.25,1833,1902.69,1878.9Z"/><path class="cls-11" d="M1905.08,2074.23c.46,47.73-5.2,83.79-12.65,80.21s-13.78-45.45-14.14-93.17c-.36-47.37,5.32-82.62,12.67-79S1904.62,2026.84,1905.08,2074.23Z"/><path class="cls-11" d="M2100,1886.71c-1.46,46.3-8.36,80.91-15.41,77s-11.51-44.89-10-91.18c1.54-46,8.42-79.78,15.38-75.87S2101.46,1840.74,2100,1886.71Z"/><path class="cls-11" d="M2099.53,2086.76c-1.19,47.81-8,83.67-15.18,79.77s-12-46.07-10.69-93.86c1.27-47.44,8.06-82.49,15.16-78.61S2100.71,2039.3,2099.53,2086.76Z"/><path class="cls-11" d="M1980.74,2147.7c45.29.16,85.13,6.63,89.07,14.45s-29.58,14.1-75,14-85.59-6.62-89.44-14.49S1935.33,2147.54,1980.74,2147.7Z"/><path class="cls-6" d="M1981,1961.82c45.3.16,85.13,6.63,89.07,14.46s-29.57,14.1-75,14-85.59-6.62-89.44-14.49S1935.55,1961.66,1981,1961.82Z"/><path class="cls-11" d="M1981,1769.89c45.3.16,85.13,6.62,89.07,14.45s-29.57,14.1-75,14-85.59-6.62-89.44-14.49S1935.55,1769.73,1981,1769.89Z"/><path class="cls-11" d="M1619.77,1877.47c.44,46.24-5.13,81.08-12.46,77.51s-13.56-44.19-13.91-90.41c-.34-45.89,5.25-80,12.48-76.39S1619.33,1831.58,1619.77,1877.47Z"/><path class="cls-6" d="M1622.16,2072.8c.45,47.74-5.2,83.8-12.65,80.21s-13.78-45.44-14.14-93.17c-.36-47.37,5.31-82.61,12.66-79S1621.7,2025.42,1622.16,2072.8Z"/><path class="cls-11" d="M1817.09,1885.28c-1.45,46.31-8.36,80.92-15.41,77s-11.51-44.89-10-91.18c1.54-45.95,8.43-79.78,15.39-75.87S1818.54,1839.31,1817.09,1885.28Z"/><path class="cls-11" d="M1816.61,2085.33c-1.19,47.81-8,83.68-15.18,79.78s-12-46.07-10.7-93.87c1.28-47.44,8.06-82.49,15.16-78.61S1817.79,2037.87,1816.61,2085.33Z"/><path class="cls-11" d="M1697.81,2146.27c45.3.16,85.13,6.63,89.07,14.46s-29.57,14.1-75,14-85.59-6.62-89.44-14.49S1652.41,2146.11,1697.81,2146.27Z"/><path class="cls-11" d="M1698,1960.4c45.3.16,85.13,6.62,89.07,14.45s-29.57,14.1-75,14-85.59-6.61-89.44-14.49S1652.62,1960.24,1698,1960.4Z"/><path class="cls-11" d="M1698,1768.46c45.3.16,85.13,6.63,89.07,14.46s-29.57,14.1-75,14-85.59-6.62-89.44-14.49S1652.62,1768.3,1698,1768.46Z"/><path class="cls-12" d="M1344.41,1878.14c.44,46.24-5.13,81.08-12.46,77.51s-13.56-44.19-13.91-90.42c-.34-45.88,5.25-79.94,12.48-76.38S1344,1832.24,1344.41,1878.14Z"/><path class="cls-12" d="M1346.79,2073.47c.46,47.73-5.2,83.79-12.64,80.21s-13.78-45.45-14.14-93.17c-.36-47.37,5.31-82.62,12.66-79S1346.34,2026.08,1346.79,2073.47Z"/><path class="cls-12" d="M1541.73,1886c-1.45,46.3-8.36,80.91-15.41,77s-11.51-44.89-10-91.18c1.54-46,8.43-79.78,15.39-75.87S1543.18,1840,1541.73,1886Z"/><path class="cls-12" d="M1541.25,2086c-1.19,47.82-8,83.68-15.18,79.78s-12-46.07-10.7-93.86c1.28-47.44,8.06-82.49,15.16-78.61S1542.43,2038.54,1541.25,2086Z"/><path class="cls-12" d="M1422.45,2146.94c45.3.16,85.13,6.63,89.07,14.45s-29.57,14.1-75,14-85.59-6.62-89.44-14.49S1377.05,2146.78,1422.45,2146.94Z"/><path class="cls-12" d="M1422.67,1961.06c45.3.16,85.13,6.63,89.07,14.46s-29.57,14.1-75,14-85.59-6.62-89.44-14.49S1377.26,1960.9,1422.67,1961.06Z"/><path class="cls-12" d="M1422.67,1769.13c45.3.16,85.13,6.62,89.07,14.45s-29.57,14.1-75,14-85.59-6.62-89.44-14.5S1377.26,1769,1422.67,1769.13Z"/><path class="cls-11" d="M1910.46,1374.45c.44,46.24-5.13,81.08-12.46,77.51s-13.56-44.19-13.91-90.42c-.34-45.88,5.25-79.94,12.48-76.38S1910,1328.55,1910.46,1374.45Z"/><path class="cls-11" d="M1912.84,1569.78c.46,47.73-5.2,83.8-12.64,80.21s-13.78-45.45-14.14-93.17c-.36-47.37,5.31-82.61,12.66-79S1912.39,1522.4,1912.84,1569.78Z"/><path class="cls-11" d="M2107.78,1382.26c-1.45,46.3-8.36,80.92-15.41,77s-11.51-44.89-10-91.18c1.54-46,8.43-79.78,15.39-75.87S2109.23,1336.29,2107.78,1382.26Z"/><path class="cls-11" d="M2107.3,1582.31c-1.19,47.81-8,83.67-15.18,79.78s-12-46.08-10.7-93.87c1.28-47.44,8.06-82.49,15.16-78.61S2108.48,1534.85,2107.3,1582.31Z"/><path class="cls-11" d="M1988.5,1643.25c45.3.16,85.13,6.63,89.07,14.46s-29.57,14.09-75,14-85.59-6.62-89.44-14.49S1943.1,1643.09,1988.5,1643.25Z"/><path class="cls-12" d="M1988.72,1457.37c45.3.16,85.13,6.63,89.07,14.46s-29.57,14.1-75,14-85.59-6.62-89.44-14.49S1943.31,1457.21,1988.72,1457.37Z"/><path class="cls-11" d="M1988.72,1265.44c45.3.16,85.13,6.63,89.07,14.45s-29.57,14.1-75,14-85.59-6.62-89.44-14.49S1943.31,1265.28,1988.72,1265.44Z"/><path class="cls-11" d="M1627.53,1373c.45,46.24-5.13,81.08-12.45,77.51s-13.56-44.19-13.91-90.41c-.35-45.89,5.24-79.95,12.48-76.39S1627.09,1327.13,1627.53,1373Z"/><path class="cls-11" d="M1629.92,1568.35c.46,47.74-5.2,83.8-12.64,80.22s-13.79-45.45-14.15-93.18c-.35-47.37,5.32-82.61,12.67-79S1629.47,1521,1629.92,1568.35Z"/><path class="cls-11" d="M1824.86,1380.83c-1.46,46.31-8.36,80.92-15.41,77s-11.51-44.89-10-91.17c1.54-46,8.43-79.79,15.39-75.88S1826.31,1334.86,1824.86,1380.83Z"/><path class="cls-11" d="M1824.37,1580.88c-1.19,47.81-8,83.68-15.18,79.78s-12-46.07-10.69-93.87c1.28-47.44,8.06-82.49,15.16-78.6S1825.55,1533.42,1824.37,1580.88Z"/><path class="cls-11" d="M1705.58,1641.82c45.3.16,85.13,6.63,89.07,14.46s-29.57,14.1-75,14-85.59-6.62-89.44-14.49S1660.17,1641.66,1705.58,1641.82Z"/><path class="cls-11" d="M1705.8,1456c45.29.16,85.13,6.62,89.07,14.45s-29.58,14.1-75,14-85.59-6.62-89.44-14.5S1660.39,1455.79,1705.8,1456Z"/><path class="cls-11" d="M1705.8,1264c45.29.16,85.13,6.63,89.07,14.46s-29.58,14.1-75,14-85.59-6.62-89.44-14.49S1660.39,1263.85,1705.8,1264Z"/><path class="cls-12" d="M1352.17,1373.69c.45,46.24-5.13,81.08-12.46,77.51s-13.55-44.19-13.9-90.42c-.35-45.88,5.24-79.94,12.48-76.38S1351.73,1327.79,1352.17,1373.69Z"/><path class="cls-12" d="M1354.56,1569c.46,47.73-5.2,83.8-12.65,80.21s-13.78-45.45-14.14-93.17c-.35-47.37,5.32-82.61,12.67-79S1354.1,1521.64,1354.56,1569Z"/><path class="cls-12" d="M1549.5,1381.5c-1.46,46.3-8.36,80.91-15.41,77s-11.51-44.89-10-91.18c1.54-46,8.42-79.78,15.38-75.87S1550.94,1335.53,1549.5,1381.5Z"/><path class="cls-12" d="M1549,1581.55c-1.19,47.81-8,83.67-15.18,79.78s-12-46.08-10.69-93.87c1.28-47.44,8.06-82.49,15.16-78.61S1550.19,1534.09,1549,1581.55Z"/><path class="cls-12" d="M1430.22,1642.49c45.29.16,85.13,6.63,89.07,14.45s-29.57,14.1-75,14-85.59-6.62-89.44-14.49S1384.81,1642.33,1430.22,1642.49Z"/><path class="cls-12" d="M1430.43,1456.61c45.3.16,85.14,6.63,89.07,14.46s-29.57,14.1-75,14-85.59-6.62-89.44-14.49S1385,1456.45,1430.43,1456.61Z"/><path class="cls-12" d="M1430.43,1264.68c45.3.16,85.14,6.63,89.07,14.45s-29.57,14.1-75,14-85.59-6.62-89.44-14.49S1385,1264.52,1430.43,1264.68Z"/><path class="cls-11" d="M1918.74,885c.44,46.24-5.13,81.08-12.46,77.51s-13.56-44.19-13.91-90.42c-.34-45.88,5.24-79.94,12.48-76.38S1918.29,839.12,1918.74,885Z"/><path class="cls-11" d="M1921.12,1080.34c.46,47.74-5.2,83.8-12.64,80.21s-13.79-45.45-14.14-93.17c-.36-47.37,5.31-82.61,12.66-79S1920.67,1033,1921.12,1080.34Z"/><path class="cls-11" d="M2116.06,892.82c-1.45,46.3-8.36,80.92-15.41,77s-11.51-44.89-10-91.18c1.54-46,8.43-79.78,15.39-75.87S2117.51,846.85,2116.06,892.82Z"/><path class="cls-11" d="M2115.58,1092.87c-1.19,47.81-8,83.67-15.18,79.78s-12-46.08-10.7-93.87c1.28-47.44,8.06-82.49,15.16-78.61S2116.75,1045.41,2115.58,1092.87Z"/><path class="cls-11" d="M1996.78,1153.81c45.3.16,85.13,6.63,89.07,14.46s-29.57,14.1-75,14-85.6-6.62-89.44-14.49S1951.38,1153.65,1996.78,1153.81Z"/><path class="cls-12" d="M1997,967.93c45.3.16,85.13,6.63,89.07,14.46s-29.57,14.1-75,14-85.59-6.62-89.44-14.49S1951.59,967.77,1997,967.93Z"/><path class="cls-11" d="M1997,776c45.3.16,85.13,6.63,89.07,14.45s-29.57,14.1-75,14-85.59-6.62-89.44-14.49S1951.59,775.84,1997,776Z"/><path class="cls-12" d="M1635.81,883.58c.45,46.24-5.13,81.08-12.46,77.51s-13.56-44.19-13.9-90.41c-.35-45.89,5.24-79.95,12.48-76.39S1635.37,837.69,1635.81,883.58Z"/><path class="cls-11" d="M1638.2,1078.91c.46,47.74-5.2,83.8-12.65,80.22s-13.78-45.45-14.14-93.18c-.35-47.37,5.32-82.61,12.67-79S1637.74,1031.53,1638.2,1078.91Z"/><path class="cls-11" d="M1833.14,891.39c-1.46,46.31-8.36,80.92-15.41,77s-11.51-44.88-10-91.17c1.54-46,8.42-79.79,15.38-75.88S1834.58,845.42,1833.14,891.39Z"/><path class="cls-12" d="M1832.65,1091.44c-1.19,47.81-8,83.68-15.18,79.78s-12-46.07-10.69-93.87c1.28-47.44,8.06-82.49,15.16-78.6S1833.83,1044,1832.65,1091.44Z"/><path class="cls-11" d="M1713.86,1152.38c45.29.16,85.13,6.63,89.07,14.46s-29.58,14.1-75,14-85.59-6.62-89.44-14.49S1668.45,1152.22,1713.86,1152.38Z"/><path class="cls-11" d="M1714.07,966.51c45.3.16,85.13,6.62,89.07,14.45s-29.57,14.1-75,14-85.59-6.62-89.44-14.5S1668.67,966.35,1714.07,966.51Z"/><path class="cls-11" d="M1714.07,774.57c45.3.16,85.13,6.63,89.07,14.46s-29.57,14.1-75,14-85.59-6.62-89.44-14.49S1668.67,774.41,1714.07,774.57Z"/><path class="cls-12" d="M1360.45,884.25c.45,46.24-5.13,81.08-12.46,77.51s-13.56-44.19-13.9-90.42c-.35-45.88,5.24-79.94,12.47-76.38S1360,838.35,1360.45,884.25Z"/><path class="cls-12" d="M1362.84,1079.58c.46,47.74-5.2,83.8-12.65,80.21s-13.78-45.45-14.14-93.17c-.35-47.37,5.32-82.61,12.67-79S1362.38,1032.2,1362.84,1079.58Z"/><path class="cls-11" d="M1557.78,892.06c-1.46,46.3-8.36,80.92-15.41,77s-11.51-44.89-10-91.18c1.54-46,8.42-79.78,15.38-75.87S1559.22,846.09,1557.78,892.06Z"/><path class="cls-11" d="M1557.29,1092.11c-1.19,47.81-8,83.67-15.18,79.78s-12-46.08-10.69-93.87c1.27-47.44,8.06-82.49,15.16-78.61S1558.47,1044.65,1557.29,1092.11Z"/><path class="cls-12" d="M1438.5,1153.05c45.29.16,85.13,6.63,89.07,14.46s-29.58,14.09-75,14-85.59-6.62-89.44-14.49S1393.09,1152.89,1438.5,1153.05Z"/><path class="cls-12" d="M1438.71,967.17c45.3.16,85.13,6.63,89.07,14.46s-29.57,14.1-75,14-85.59-6.62-89.44-14.49S1393.31,967,1438.71,967.17Z"/><path class="cls-12" d="M1438.71,775.24c45.3.16,85.13,6.63,89.07,14.45s-29.57,14.1-75,14-85.59-6.62-89.44-14.49S1393.31,775.08,1438.71,775.24Z"/><path class="cls-11" d="M982.34,1796.26s13.62-38.43,41.42-38.6c30.24-.18,48.27,17.59,53.65,42-5.38-24.43,17.47-37.54,41-38.07,28.92-.66,44.24,24.56,44.24,24.56,37.34,63.71-89.26,139.38-89.26,139.38S971.68,1850.91,982.34,1796.26Z"/><rect class="cls-6" x="1359.24" y="2270.99" width="775.15" height="59.33" rx="7.83" ry="7.83"/><rect class="cls-6" x="959.71" y="2270.99" width="347" height="59.33" rx="7.83" ry="7.83"/><rect class="cls-13" x="1924.84" y="2598.36" width="50.62" height="547.41"/><path class="cls-14" d="M2171.82,3156.32H1728.47a33,33,0,0,1,33-33h377.45a33,33,0,0,1,33,33Z"/><rect class="cls-15" x="1680.19" y="2475.7" width="557.42" height="158.09" rx="54.44" ry="54.44"/><path class="cls-16" d="M2755,3091.57s7.74,43.83,11.54,87.22a29.9,29.9,0,0,1-28.6,32.39c-57.78,2.41-181.37,7.09-225.72,5.11a9.73,9.73,0,0,1-8.56-13.33h0a21.8,21.8,0,0,1,11.13-11.73l204.16-93.83Z"/><path class="cls-17" d="M2761.29,3065.82l-6.22,52.43s-35.76,16.64-60.18-2.1l14.81-58.43Z"/><path class="cls-18" d="M2756.62,2080.15c2.68,13.69,14.42,683.23-57.15,983.27a10.19,10.19,0,0,0,6,11.85c11,4.48,32.49,11,58.28,11.84a17.53,17.53,0,0,0,17.4-12.58c20.46-69.62,118.49-418.41,131.28-751.59,14.29-372.31,0-12.68,0-12.68L2904,2080.12Z"/><path class="cls-19" d="M2989.8,3114.44s12.32,22.13,24.25,80.92a18.24,18.24,0,0,1-16.05,21.85c-19.07,1.87-48.45,4.29-72,4.12a18.19,18.19,0,0,1-18-20.28c2.61-21.46,10.73-56.68,35.81-84.12Z"/><path class="cls-20" d="M3000.62,3047l-14.53,79.29s-14.37,10.69-42.8,2.94l6.93-85.31Z"/><path class="cls-21" d="M3039.89,2100.7c58.53,353.25-12.7,873.09-36.72,974.84a15.87,15.87,0,0,1-12.81,12.05c-10.73,1.77-28.38,3.22-45.79-1.83a14.54,14.54,0,0,1-10.45-13.39c-3.22-82.26,2.58-587.24-52-786.82a45.38,45.38,0,0,0-17.49-25l-105.86-75.25-8.11-121.65Z"/><path class="cls-22" d="M2387.25,2166.1c-21.68-16.13-54.75-35.61-54.75-35.61,142.77-50.37,169.46-317.79,205.36-458.91,39.09,7.05,32.39-20.16,86,21.44C2708.84,1976.46,2387.25,2166.1,2387.25,2166.1Z"/><path class="cls-4" d="M2659.3,1463.59c175.1-10.76,376.57,13.82,376.57,13.82,52.29,305.09,9.15,657,9.15,657-135.8,35.61-289-21.77-289-21.77-22.57-127.53-116.72-448-116.72-448,11.28,64.4,38.38,137.93-12.35,182.58-51.37-22-149-78.67-140-117.33C2543.61,1577.53,2596,1467.48,2659.3,1463.59Z"/><path class="cls-23" d="M2313,2136.29c-17.46,17.19-36.08,40.09-52.12,61.3,1.21,8.1,11.37,18.93,11.37,18.93,13.59,5.13,25.45,12.07,41.24,13.83a47.16,47.16,0,0,0,33.65-9.65c9.67-7.38,22.19-17.34,31.79-26.44,18.19-17.22,15.37-37.57,15.37-37.57,5.94.95,11.56-21-13.41-29.75C2369.75,2128.14,2321.13,2128.32,2313,2136.29Z"/><path class="cls-4" d="M2968.59,1647.26l67.28-169.85s163.85,111.33,190.79,252.48c-30.95,2.28-87.29,10.33-142.43,38.17C3072.11,1701.41,2968.59,1647.26,2968.59,1647.26Z"/><path class="cls-24" d="M2825.41,1807.09s184,104,246,15.19c12.88-18.43,16-36.75,12.79-54.22,55.14-27.84,111.48-35.89,142.43-38.17,8.13,42.55,3.83,87.81-21.17,133.55-108.73,198.89-404.42-11-404.42-11Z"/><path class="cls-25" d="M2844.59,1300.82l55.81,172.29a6.4,6.4,0,0,1-2.65,7.48c-15.21,9-70,34.93-136.08-9.78a29.42,29.42,0,0,1-12.61-20.87L2731,1300.82Z"/><path class="cls-26" d="M2723.15,1151.35s-61.29,115.37-53.44,162,83.82,43.26,150.15,5.41l46.35-124.57Z"/><path class="cls-27" d="M2816.93,1257.55a4.76,4.76,0,0,1-2.08-7c4.91-7.5,14.12-22.8,17.05-36.2,0,0,11-7.06-28-16.41s-97.31-23.86-109.55-57.11c-11.94-32.41,19.42-113.93,69.46-49a4.76,4.76,0,0,0,7.54.06c8.2-10.68,29.76-32.84,59.71-19.41,28,12.58,31.17,33.11,30.79,43.46a4.73,4.73,0,0,0,5.6,4.84c14.17-2.7,48.16-5,64,29.85,13.07,28.72,4.57,45-3.16,52.94a4.74,4.74,0,0,0,2,7.87c9.31,2.85,21.33,10.74,20.13,32.56-1.67,30.15-35.38,27.49-45,26.12a4.75,4.75,0,0,0-4.22,1.49c-8.24,9.11-45.32,47.79-85.46,52.45a4.8,4.8,0,0,1-5-6.34l17.37-50.49a4.77,4.77,0,0,0-2.58-5.92Z"/><path class="cls-28" d="M2810,1264.72s43.63-29.94,46.82-4.73-39.3,36.52-60.34,27.12Z"/><path class="cls-29" d="M2162.16,1962.1S2275.9,2263.73,2457.22,2319c35.19,8.79,77.12,7.94,95.19,20.53,20.53,14.3-7.15,48.5-18.89,74.92s-15.09,13.58-19.22,4.74,16.59-35-8.08-47-17.89,4.81-6.78,19.58,9.58,36.54,8.76,37.65-19.44-9.45-37-18.81c-15-8-22.64-28.32-24.5-33.93-36.15-6.15-261.94-53.91-346.16-298.41C2100.57,2078.29,2103.73,1840.11,2162.16,1962.1Z"/><path class="cls-6" d="M2162.16,1962.1s27.9,74,78.06,155.33c-36.08,10.17-68.41,29.08-95.92,53.91a466.39,466.39,0,0,1-43.73-93.05S2103.73,1840.11,2162.16,1962.1Z"/><path class="cls-30" d="M2264,2170.74l-78.57,55.81c-6.7,4.76-15.61,2.84-20.2-4.34l-50.1-78.38a17.78,17.78,0,0,1,0-18.91l65-101.1c6.3-9.79,19.69-9,25.06,1.39l63.66,123.68C2272.72,2156.44,2270.58,2166,2264,2170.74Z"/><path class="cls-31" d="M2039.56,1622.89s-.06,17.93-58,16.81c-32.29-.63-92.17-7.67-126,42.85-17.46,26.08-49.28,38-79.13,28.26-74.35-24.2-198.76-42-276.17,69.27-59.09,84.91-29.94,143.1,12.94,179.76,31.49,26.93,37.76,73.92,12.2,106.54-24.51,31.29-34.39,76.76,9.86,139,99.18,139.39,355.16-32.79,355.16-32.79l239-405.44Z"/><path class="cls-6" d="M1559.64,1915.57a4.81,4.81,0,0,0,2.29-.58.92.92,0,0,0,.39-1.25.94.94,0,0,0-1.25-.39c-3.06,1.6-6.42-2.36-7.93-5-20.89-36-16.38-86.16,11-122.11,16.37-21.53,38.46-36.08,62.19-41,16.86-3.49,34.2-2.09,50.52-.36,27.7,2.94,55.55,7.27,82.78,12.87l6.74,1.4c16,3.36,32.56,6.83,49.17,6.88h.3c21.37,0,40.08-6.21,52.74-17.51,7.88-7,13.72-16.17,19.37-25,6.76-10.58,13.76-21.52,24.18-28.48a.93.93,0,0,0-1-1.55c-10.75,7.18-17.85,18.29-24.71,29-5.58,8.73-11.35,17.75-19,24.62-12.31,11-30.59,17-51.5,17h-.29c-16.43,0-32.88-3.5-48.8-6.83L1760,1756c-27.28-5.61-55.19-10-83-12.89-16.46-1.74-34-3.15-51.1.38-24.16,5-46.64,19.77-63.29,41.65-27.8,36.54-32.36,87.6-11.1,124.18C1553.51,1912.72,1556.57,1915.57,1559.64,1915.57Z"/><path class="cls-6" d="M1559.29,1898.21l.17,0a.92.92,0,0,0,.74-1.08c-4.49-23.79-2.66-45.95,5.28-64.06,9.26-21.1,27.47-36.6,47.52-40.46a1,1,0,0,0,.74-1.09.91.91,0,0,0-1.09-.73c-20.65,4-39.37,19.89-48.86,41.53-8.1,18.46-10,41-5.41,65.15A.92.92,0,0,0,1559.29,1898.21Z"/><path class="cls-32" d="M2531.38,3035.76c-.49-.4-126.7-591.89-152-654.65-4.26-10.55-38.52-34.17-49.71-36.26l-97-21.07-143,170.42,195.71-44.54c-51.86,108.14,108,343.08,161.71,427.35a17.55,17.55,0,0,1-6.32,24.81l-38.66,21.36c32.62,63.42,78,111.81,135.77,145.69Z"/><path class="cls-33" d="M2427.9,2899.84s-20.46.18-31.94,14.76c-5.49,7-5.05,17,.29,24.05,23.72,31.5,102.48,133.89,144.7,162.34a5.53,5.53,0,0,0,8.54-4.15c1-11.56,0-35.59-15-75l.82,5.22a6.78,6.78,0,0,1-11.63,5.73C2498.08,3005.43,2446.69,2947.07,2427.9,2899.84Z"/><path class="cls-34" d="M2388.22,3116.54c-.41-.48-12.92-124.12-13.33-124.6,34.89-267.22-1.45-516-14.25-582.47a33.26,33.26,0,0,0-20.43-24.64l-82.95-32.92-198.82,148.46,200.62-6.21c-71.62,96.19,40.29,357.43,76.83,450.42a17.56,17.56,0,0,1-11,23.14l-42,13.55c19.87,68.5,55.16,124.69,105.34,169Z"/><path class="cls-35" d="M2306.62,2974.52s-20.12-3.74-34.17,8.37c-6.73,5.79-8.21,15.67-4.33,23.65C2285.37,3042,2343,3157.59,2379,3193.6a5.51,5.51,0,0,0,9.17-2.43c3.2-11.16,6.86-34.92-.31-76.5l-.19,5.28a6.79,6.79,0,0,1-12.52,3.4C2355.26,3091.6,2316,3024.47,2306.62,2974.52Z"/><path class="cls-36" d="M1809.14,2296.78s-58.6,108.89-65.2,163.47,31.57,50.74,115.77,57.7c250.56,20.72,342.9-20.9,342.9-20.9,17.15-109.29-5.91-89.59,137.24-149,10.25-2-141.56-43.49-201.31-39.44C2087.1,2312.08,1809.14,2296.78,1809.14,2296.78Z"/><path class="cls-37" d="M2026.69,2280.94s93.68-89.2,139.8-148.28a125.37,125.37,0,0,0,21.22-112.82c-21.05-70.93-58.46-144.39-61.88-155.82-5.23-17.53-110.27-16.8-110.27-16.8s-206.69,134.15-287.9,361.38l91.2,28.4s54-90.54,107.3-148.11c0,0-92.27,121.89-95.52,171.79Z"/><path class="cls-38" d="M2138.54,1766.07c-1.1,3.64-28.52,94.53-30.66,96.42s-60.12,5-87.42-13.65l55.71-123.22Z"/><path class="cls-39" d="M2205.18,2316.14l-70.39-76.58-81.29,21.89s-94.78,14.68-149,0l-54.24-14.69-122.58-38.16L1708.41,2263a32.76,32.76,0,0,0,12,37.64c10.61,7.53,23,15.82,31,19.28,16.15,7.06,371.86,2.24,371.86,2.24Z"/><path class="cls-40" d="M2190.33,1642.7s24.61,44.1,8.21,116.58-54.13,82.42-80.15,67.53-60.62-42.69-70.92-105.81S2157,1587.13,2190.33,1642.7Z"/><path class="cls-41" d="M2094.42,1712.1s32.82-99.16,102.31-46.44l7.36,23.93s58.77-23.32,33.37-76.15-87.1-73.68-148.24-31.63-93.29,77.06-84.79,126.62,44.2,28.72,44.2,28.72,3.5-37.42,20.42-45.71,19.34,19.52,19.34,19.52Z"/><path class="cls-42" d="M2084.92,1736.17s17.16-50.87-13.92-49.52-13.61,48.74-5.66,65.87Z"/><path class="cls-43" d="M2306.57,2203.9a3.33,3.33,0,0,1-.63-6.6c.55-.11,56.26-11.47,128.13-62,66.35-46.68,160.44-137.29,231.89-303.85,41.28-96.24,51.7-179.86,53.18-233.05,1.59-57.65-6.68-93-6.77-93.35a3.33,3.33,0,1,1,6.48-1.55c.35,1.42,33.17,144.22-46.77,330.58-72.15,168.2-167.36,259.74-234.52,306.91-73,51.25-128,62.43-130.35,62.88A3.39,3.39,0,0,1,2306.57,2203.9Z"/><path class="cls-44" d="M2308,2214.41c0,26.68-15,48.31-33.45,48.31s-33.45-21.63-33.45-48.31,15-48.31,33.45-48.31S2308,2187.73,2308,2214.41Z"/><path class="cls-45" d="M2281.45,2220.76l12.08-33.79,13-27.55,46.91,13.32s-47.45,35.18-54.58,44.39S2286.17,2225.06,2281.45,2220.76Z"/><path class="cls-46" d="M2881.63,1967.34l-100.39-350.61a10.24,10.24,0,0,0-8.65-7.37c-18.19-2.12-70.9-8.08-131.75-13.22-73.31-6.2-158.44-11.23-209.31-7a10.25,10.25,0,0,0-8.38,14.76c28.93,58.52,147.92,296.59,207.5,374.57a10.32,10.32,0,0,0,8.28,4.07l232.94-2.17A10.25,10.25,0,0,0,2881.63,1967.34Z"/><path class="cls-47" d="M2630.42,1565.74l-72.79-12.13a5.23,5.23,0,0,0-5.82,6.79l7.21,21.84a5.22,5.22,0,0,0,4.27,3.54l70,9.35a5.22,5.22,0,0,0,5.78-6.36l-4.46-19.07A5.23,5.23,0,0,0,2630.42,1565.74Z"/><path class="cls-48" d="M2684.93,1627.36l-6-31.23a7.22,7.22,0,0,0-6.36-5.82l-147-14.92a7.22,7.22,0,0,0-7.75,8.87l9.35,38.92a7.22,7.22,0,0,0,6.65,5.52l143.67,7.23A7.22,7.22,0,0,0,2684.93,1627.36Z"/><path class="cls-49" d="M2857.38,1882.63s14-57.51,8.34-77.91-16.57-46.64-53-40.81-79.41,21.18-79.41,21.18,2.17,26.58,29.86,18L2746,1816.38s2.45,21.28,25.84,9.91l-16,17.62s10.05,17.47,27.25,6.27S2808.58,1889.55,2857.38,1882.63Z"/><path class="cls-50" d="M2731.71,1507.58c-11.89,0-21.16-4.49-27.54-13.35-26.54-36.79,6.85-138.54,8.28-142.86a3.34,3.34,0,0,1,6.33,2.11c-.35,1-33.76,102.82-9.21,136.86,5.14,7.11,12.38,10.57,22.14,10.57,87.37,0,102.24-227.27,102.38-229.57a3.4,3.4,0,0,1,3.53-3.12,3.33,3.33,0,0,1,3.12,3.53C2840.15,1281.38,2825.31,1507.58,2731.71,1507.58Z"/></g></g></svg>