<svg id="Illustration" xmlns="http://www.w3.org/2000/svg" xmlns:xlink="http://www.w3.org/1999/xlink" viewBox="0 0 3710 3710"><defs><style>.cls-1{fill:url(#linear-gradient);}.cls-2{fill:#bdd0fb;}.cls-10,.cls-19,.cls-3,.cls-6,.cls-7{fill:#fff;}.cls-3{opacity:0.43;}.cls-4{fill:#91b3fa;}.cls-5{fill:url(#linear-gradient-2);}.cls-6,.cls-9{opacity:0.6;}.cls-7{opacity:0.78;}.cls-8{fill:#7d97f4;}.cls-11{fill:url(#linear-gradient-3);}.cls-12{fill:url(#linear-gradient-4);}.cls-13{fill:url(#linear-gradient-5);}.cls-14{fill:url(#linear-gradient-6);}.cls-15{fill:url(#linear-gradient-7);}.cls-16{fill:url(#linear-gradient-8);}.cls-17{fill:url(#linear-gradient-9);}.cls-18{fill:url(#linear-gradient-10);}.cls-19{opacity:0.48;}.cls-20{fill:url(#linear-gradient-11);}.cls-21{fill:url(#linear-gradient-12);}.cls-22{fill:url(#linear-gradient-13);}.cls-23{fill:url(#linear-gradient-14);}.cls-24{fill:url(#linear-gradient-15);}.cls-25{fill:url(#linear-gradient-16);}.cls-26{fill:url(#linear-gradient-17);}.cls-27{fill:url(#linear-gradient-18);}.cls-28{fill:url(#linear-gradient-19);}.cls-29{fill:url(#linear-gradient-20);}.cls-30{fill:url(#linear-gradient-21);}.cls-31{fill:url(#linear-gradient-22);}.cls-32{fill:url(#linear-gradient-23);}.cls-33{fill:url(#linear-gradient-24);}.cls-34{fill:url(#linear-gradient-25);}</style><linearGradient id="linear-gradient" x1="3579.96" y1="4075.45" x2="1106.47" y2="1003.52" gradientUnits="userSpaceOnUse"><stop offset="0" stop-color="#dae3fe"/><stop offset="1" stop-color="#e9effd"/></linearGradient><linearGradient id="linear-gradient-2" x1="815.72" y1="3222.44" x2="3309.38" y2="236.79" gradientUnits="userSpaceOnUse"><stop offset="0" stop-color="#09005d"/><stop offset="1" stop-color="#1a0f91"/></linearGradient><linearGradient id="linear-gradient-3" x1="1226.26" y1="1045.33" x2="1054.4" y2="1606.37" gradientTransform="matrix(1, 0.02, -0.02, 1, 284.54, 351.21)" gradientUnits="userSpaceOnUse"><stop offset="0" stop-color="#ff928e"/><stop offset="1" stop-color="#fe7062"/></linearGradient><linearGradient id="linear-gradient-4" x1="1286.55" y1="1063.79" x2="1114.69" y2="1624.84" xlink:href="#linear-gradient-3"/><linearGradient id="linear-gradient-5" x1="1418.3" y1="1104.14" x2="1246.45" y2="1665.19" xlink:href="#linear-gradient-3"/><linearGradient id="linear-gradient-6" x1="1800.05" y1="-107.53" x2="1127.67" y2="776.97" gradientTransform="matrix(1, 0.02, -0.02, 1, 284.54, 351.21)" xlink:href="#linear-gradient-2"/><linearGradient id="linear-gradient-7" x1="1873.82" y1="-51.48" x2="1201.42" y2="833.05" gradientTransform="matrix(1, 0.02, -0.02, 1, 284.54, 351.21)" xlink:href="#linear-gradient-2"/><linearGradient id="linear-gradient-8" x1="2394.93" y1="3269.53" x2="2571.83" y2="1374.1" gradientUnits="userSpaceOnUse"><stop offset="0" stop-color="#e1473d"/><stop offset="1" stop-color="#e9605a"/></linearGradient><linearGradient id="linear-gradient-9" x1="2793.45" y1="1153.02" x2="1981.96" y2="2616.6" gradientTransform="translate(58.97 -62.35) rotate(1.32)" xlink:href="#linear-gradient-8"/><linearGradient id="linear-gradient-10" x1="1550.57" y1="4589.63" x2="782.55" y2="2850.83" gradientTransform="matrix(0.92, 0.39, -0.39, 0.92, 2460.52, -1413.55)" xlink:href="#linear-gradient-8"/><linearGradient id="linear-gradient-11" x1="-4877.25" y1="3074.97" x2="-5562.3" y2="3820.12" gradientTransform="matrix(-1, 0, 0, 1, -2870.72, 0)" xlink:href="#linear-gradient-2"/><linearGradient id="linear-gradient-12" x1="-5099.6" y1="3130.31" x2="-5038.76" y2="3130.31" gradientTransform="matrix(-1, 0, 0, 1, -2870.72, 0)" gradientUnits="userSpaceOnUse"><stop offset="0" stop-color="#febbba"/><stop offset="1" stop-color="#ff928e"/></linearGradient><linearGradient id="linear-gradient-13" x1="-5243.89" y1="2665.04" x2="-5042.69" y2="2665.04" gradientTransform="matrix(-1, 0, 0, 1, -2870.72, 0)" xlink:href="#linear-gradient-2"/><linearGradient id="linear-gradient-14" x1="-5030.93" y1="2933.68" x2="-5715.98" y2="3678.83" gradientTransform="matrix(-1, 0, 0, 1, -2870.72, 0)" xlink:href="#linear-gradient-2"/><linearGradient id="linear-gradient-15" x1="-5318.91" y1="3127.19" x2="-5266.37" y2="3127.19" xlink:href="#linear-gradient-12"/><linearGradient id="linear-gradient-16" x1="-5375.53" y1="2658.45" x2="-5089.9" y2="2658.45" gradientTransform="matrix(-1, 0, 0, 1, -2870.72, 0)" xlink:href="#linear-gradient-2"/><linearGradient id="linear-gradient-17" x1="-3283.54" y1="-5828.37" x2="-3404.84" y2="-5338.09" gradientTransform="matrix(-1, 0, 0, 1, -2870.72, 0)" gradientUnits="userSpaceOnUse"><stop offset="0" stop-color="#4f52ff"/><stop offset="1" stop-color="#4042e2"/></linearGradient><linearGradient id="linear-gradient-18" x1="-5227.37" y1="1548.57" x2="-5061.98" y2="1548.57" xlink:href="#linear-gradient-12"/><linearGradient id="linear-gradient-19" x1="-9510.55" y1="-1944.09" x2="-9568.67" y2="-2135.8" gradientTransform="matrix(-1, -0.05, -0.05, 1, -7411.92, 3007.13)" xlink:href="#linear-gradient-12"/><linearGradient id="linear-gradient-20" x1="2439.56" y1="747.05" x2="2262.65" y2="1287.87" xlink:href="#linear-gradient-2"/><linearGradient id="linear-gradient-21" x1="-9569.96" y1="-1944.98" x2="-9622.26" y2="-2117.47" gradientTransform="matrix(-1, -0.05, -0.05, 1, -7411.92, 3007.13)" xlink:href="#linear-gradient-12"/><linearGradient id="linear-gradient-22" x1="-5195.93" y1="1889.42" x2="-5047.44" y2="1889.42" xlink:href="#linear-gradient-12"/><linearGradient id="linear-gradient-23" x1="4038.36" y1="739.53" x2="4185.14" y2="739.53" gradientTransform="translate(-1655.71 146.59) rotate(13.88)" xlink:href="#linear-gradient-12"/><linearGradient id="linear-gradient-24" x1="-5281.24" y1="1733.19" x2="-5428.21" y2="2285.66" xlink:href="#linear-gradient-17"/><linearGradient id="linear-gradient-25" x1="-4883.61" y1="1758.6" x2="-5641.7" y2="2858.14" xlink:href="#linear-gradient-17"/></defs><title>Easy to useArtboard 31</title><path class="cls-1" d="M2899.49,2864c-56.81,59.81-110.57,98.39-153,128.86-499.26,358.23-1090,253.81-1215.57,228.31C1345.46,3183.5,987.08,3110.71,728,2806c-392-461-331-1187.25-26.9-1666.67,55.62-87.69,349.41-574.41,946.53-652.47,361.38-47.24,782.62,48,1087.68,303.61C3375.62,1327,3330,2410.73,2899.49,2864Z"/><path class="cls-2" d="M595.67,851.2c4.45-14.85,25.9-13.87,28.9,1.34,29,147,117.2,530.16,282.59,742.82,269.28,346.26,424.1,886.27,213.89,1143.08C1121.05,2738.44,111.23,2469.17,595.67,851.2Z"/><path class="cls-3" d="M607.89,1058.68c0,4.74.36,8.64.58,12.85l.9,12.42,2.08,24.78c1.5,16.51,3.25,33,5,49.47q5.43,49.41,12,98.69c8.79,65.7,19.36,131.16,30.91,196.44s24.75,130.28,39.41,195,30.34,129.13,48.09,193c35.24,127.9,77.47,254,128.44,376.62,26.12,61,53.85,121.4,85,180,31.59,58.39,65.67,115.47,103.76,169.81a2.62,2.62,0,0,0,4.34-2.92l0,0A1926.78,1926.78,0,0,1,969.93,2393c-30.06-58.81-56.67-119.31-81.66-180.41s-47.47-123.26-68.56-185.85-39.53-126.08-57.63-189.62c-35.67-127.27-64.52-256.4-89.81-386.2q-18.76-97.4-33.74-195.49-7.6-49-14.21-98.19L618.16,1108l-2.83-24.63-1.27-12.32c-.36-4-.8-8.38-1-11.92l0-.59a2.59,2.59,0,0,0-5.18.11Z"/><path class="cls-4" d="M975.14,473.27c6.54-13.31,26.62-9,27.06,5.82,4.19,143.33,27,518.79,149.49,745.57,199.49,369.23,260.4,903.24,21.52,1112.43C1173.21,2337.09,262.75,1923.68,975.14,473.27Z"/><path class="cls-3" d="M953.89,671c-.75,4.48-1,8.22-1.48,12.23l-1.11,11.86-1.95,23.71c-1.2,15.82-2.15,31.64-3.1,47.47q-2.67,47.49-4.27,95c-2.08,63.39-2.44,126.82-1.84,190.25s2.79,126.85,6.41,190.2,8.27,126.65,14.93,189.78c13.07,126.25,33,251.92,61.8,375.67,15,61.71,31.7,123.06,51.88,183.31,20.61,60.08,43.78,119.32,71.18,176.6a2.55,2.55,0,0,0,4.64-2.1l0,0a1843.91,1843.91,0,0,1-65.78-177.72c-19.08-60.23-34.63-121.52-48.57-183.13s-25.34-123.8-35.36-186.19-17.41-125.2-24.47-188c-13.59-125.72-20.44-252.13-23.85-378.6q-2.35-94.86-1-189.8.54-47.44,2.06-94.9l1.94-47.41,1.22-23.69.73-11.83c.3-3.86.57-8,1-11.4l.07-.57a2.53,2.53,0,0,0-5-.72Z"/><path class="cls-5" d="M1093.34,764.11,2555,787.89a151.44,151.44,0,0,1,148.89,146.19L2777.31,3055a111.68,111.68,0,0,1-111.4,115.55L990.17,3173.7A106,106,0,0,1,884,3066l34.7-2132.78A171.9,171.9,0,0,1,1093.34,764.11Z"/><path class="cls-2" d="M1235.66,3141h-.1l-187.41-5.48c-62.32-1.82-112.2-54-111.19-116.36l4.61-283a3.37,3.37,0,0,1,3.37-3.32h0a3.39,3.39,0,0,1,3.32,3.43l-4.61,283c-1,58.67,46,107.8,104.64,109.51l187.42,5.48a3.37,3.37,0,0,1-.1,6.74Z"/><path class="cls-2" d="M946.37,2651.94h-.06a3.37,3.37,0,0,1-3.31-3.43l.74-45.83a3.37,3.37,0,0,1,3.37-3.31h.06a3.36,3.36,0,0,1,3.31,3.42l-.74,45.83A3.37,3.37,0,0,1,946.37,2651.94Z"/><path class="cls-4" d="M1098.12,747c199.16,30.31,884.18,125.19,1452.38,90.86a46.18,46.18,0,0,1,49,44.35L2678,3012.64a53.14,53.14,0,0,1-50.83,55.06c-238.9,10.24-1222.73,48.85-1572.74,6.42a42.09,42.09,0,0,1-37-42.26l23.22-2236A49.93,49.93,0,0,1,1098.12,747Z"/><path class="cls-6" d="M1118.6,802.57c191.66,29.17,850.89,120.48,1397.69,87.45a44.42,44.42,0,0,1,47.16,42.68L2639,2982.89a51.14,51.14,0,0,1-48.9,53c-229.91,9.85-1176.7,47-1513.52,6.18a40.51,40.51,0,0,1-35.59-40.68L1063.32,849.6A48.06,48.06,0,0,1,1118.6,802.57Z"/><path class="cls-7" d="M1238.57,1010.43l13.26,439.49a27.91,27.91,0,0,0,26.66,27.07c81.3,3.62,334.63,13.93,477.85,8.79a31.17,31.17,0,0,0,30-29.66c4.07-82.31,13.94-321.93-3.19-422.44a35.2,35.2,0,0,0-32.94-29.17l-480.46-24.63A29.7,29.7,0,0,0,1238.57,1010.43Z"/><circle class="cls-8" cx="1512.64" cy="1171.94" r="94.42" transform="translate(-268.55 472.73) rotate(-16.33)"/><path class="cls-8" d="M1364.74,1446.78l300.76,4.89c18.44.3,29.82-19.88,20.15-35.58-24.9-40.39-77.4-100-170-98.84-89.26,1.1-143,53.29-170.21,90.9C1333.89,1424.11,1345,1446.46,1364.74,1446.78Z"/><g class="cls-9"><path class="cls-10" d="M2453.81,1068.44a3.88,3.88,0,0,0,3.94-3.94l-.28-21.48a4.23,4.23,0,0,0-4-4.13L1900.17,1020a2.6,2.6,0,0,0-2.73,3.66l10.73,32.11a6,6,0,0,0,5.26,3.85Z"/></g><g class="cls-9"><path class="cls-10" d="M1898.84,1101.89a2.6,2.6,0,0,0-2.73,3.66l10.73,32.11a6,6,0,0,0,5.26,3.85l540.37,8.8a3.88,3.88,0,0,0,4-3.94l-.28-21.48a4.24,4.24,0,0,0-4-4.13Z"/></g><g class="cls-9"><path class="cls-10" d="M1897.49,1185a2.6,2.6,0,0,0-2.73,3.66l10.72,32.11a6.07,6.07,0,0,0,5.27,3.85l540.37,8.8a3.88,3.88,0,0,0,4-3.94l-.28-21.48a4.24,4.24,0,0,0-4.05-4.13Z"/></g><g class="cls-9"><path class="cls-10" d="M2495.81,1634.76a3.7,3.7,0,0,0,3.8-3.93l-1.07-21.51a4.38,4.38,0,0,0-4.2-4.09l-1261.09-30.46c-2.2,0-2.9,1.33-1.56,3.07l25.91,33.64a9.41,9.41,0,0,0,6.44,3.24Z"/></g><g class="cls-9"><path class="cls-10" d="M1231.92,1656.64c-2.2-.05-2.9,1.33-1.56,3.07l25.9,33.64a9.43,9.43,0,0,0,6.44,3.24l1231.78,20a3.7,3.7,0,0,0,3.8-3.93l-1.07-21.51a4.38,4.38,0,0,0-4.2-4.09Z"/></g><path class="cls-10" d="M1401.79,1975.15H1401l-104.21-2.69c-14.57-.38-26.43-10.57-27.6-23.72l-7.74-87.61a18.39,18.39,0,0,1,4.58-13.74,22.23,22.23,0,0,1,15.63-7.4h0c8.79-.45,21.18-1.31,34.3-2.21,27.59-1.9,61.83-4.34,81.22-4.19,13.6.05,25.21,8.45,28.24,20.42,5.08,20.08,4,58,2.3,98.44C1427.23,1965.1,1415.65,1975.15,1401.79,1975.15Zm-119.74-128.44a15.48,15.48,0,0,0-10.9,5.09,11.68,11.68,0,0,0-2.94,8.73l7.74,87.61c.86,9.73,9.91,17.28,21,17.57l104.22,2.7h.57c10.28,0,18.86-7.19,19.23-16.25,1.67-39.9,2.77-77.3-2.1-96.51-2.23-8.84-11.37-15.29-21.73-15.33-19-.14-53.25,2.28-80.73,4.17-13.15.91-25.56,1.76-34.41,2.22Z"/><g class="cls-9"><path class="cls-10" d="M1489.73,1886.5a2.92,2.92,0,0,0-3,3.81l11,44.54a5.42,5.42,0,0,0,5,3.91l971.73,5.64a4,4,0,0,0,4-4l-.17-30.89a4.15,4.15,0,0,0-4-4.08Z"/></g><path class="cls-11" d="M1297.36,1870.34h0a16,16,0,0,1,22,6.36l20,37.19a5.14,5.14,0,0,0,9.18-.25L1401.31,1801c2.63-5.62,11-3.57,10.84,2.64-1.08,34.71-11.37,100.57-67.75,154.92,0,0-30.39-12.39-54.13-66.86A16.79,16.79,0,0,1,1297.36,1870.34Z"/><path class="cls-10" d="M1398.16,2198.55h-.75l-104.22-2.7c-14.57-.37-26.43-10.57-27.59-23.71l-7.74-87.61a18.36,18.36,0,0,1,4.57-13.75,22.22,22.22,0,0,1,15.63-7.39h0c8.79-.46,21.18-1.31,34.29-2.21,27.59-1.9,62-4.23,81.24-4.19,13.59.05,25.21,8.44,28.24,20.41,5.08,20.09,4,58,2.29,98.45C1423.59,2188.5,1412,2198.55,1398.16,2198.55Zm-119.75-128.44a15.5,15.5,0,0,0-10.89,5.08,11.69,11.69,0,0,0-3,8.74l7.74,87.6c.86,9.73,9.91,17.29,21.06,17.58l104.21,2.69h.58c10.28,0,18.85-7.19,19.23-16.26,1.67-39.89,2.77-77.29-2.1-96.5-2.24-8.85-11.37-15.29-21.73-15.33-19,0-53.26,2.28-80.75,4.17-13.14.91-25.55,1.76-34.4,2.22Z"/><path class="cls-6" d="M1289.51,2080c21.92-1.14,69.59-5.2,92.17-5.11,9.56,0,17.86,5.95,20,14.28,4.09,16.18,3,48.28,1.75,77.9-.37,8.87-8.63,15.82-18.59,15.56l-83.28-2.15c-10.24-.27-18.63-7.39-19.44-16.5l-6.18-70C1275.27,2086.68,1281.38,2080.38,1289.51,2080Z"/><g class="cls-9"><path class="cls-10" d="M1486.1,2109.9a2.93,2.93,0,0,0-3,3.81l11,44.54a5.45,5.45,0,0,0,5,3.91l971.73,5.64a4,4,0,0,0,4-4l-.18-30.9a4.12,4.12,0,0,0-4-4.07Z"/></g><path class="cls-10" d="M1394.52,2422h-.75l-104.21-2.7c-14.57-.37-26.43-10.57-27.6-23.72l-7.74-87.6a18.41,18.41,0,0,1,4.58-13.75,22.22,22.22,0,0,1,15.63-7.39h0c8.79-.46,21.18-1.31,34.3-2.22,27.59-1.89,62.07-4.2,81.22-4.18,13.6,0,25.21,8.44,28.24,20.41,5.09,20.09,4,58,2.3,98.44C1420,2411.89,1408.38,2422,1394.52,2422Zm-119.74-128.44a15.45,15.45,0,0,0-10.9,5.08,11.69,11.69,0,0,0-2.94,8.74l7.74,87.6c.86,9.73,9.91,17.29,21,17.57l104.22,2.7h.57c10.28,0,18.86-7.19,19.23-16.26,1.67-39.9,2.77-77.3-2.09-96.51-2.28-9-11.21-15.28-21.74-15.32-19.1-.16-53.25,2.28-80.73,4.17-13.15.9-25.56,1.76-34.41,2.22Z"/><path class="cls-6" d="M1285.88,2303.35c21.92-1.14,69.59-5.2,92.16-5.11,9.57,0,17.86,6,20,14.28,4.1,16.18,3,48.27,1.76,77.89-.37,8.87-8.64,15.83-18.59,15.57l-83.28-2.16c-10.24-.26-18.63-7.38-19.44-16.5l-6.19-70C1271.63,2310.08,1277.75,2303.77,1285.88,2303.35Z"/><g class="cls-9"><path class="cls-10" d="M1482.46,2333.3a2.91,2.91,0,0,0-3,3.8l11,44.55a5.42,5.42,0,0,0,5,3.9l971.73,5.64a4,4,0,0,0,4-4l-.17-30.9a4.14,4.14,0,0,0-4-4.08Z"/></g><path class="cls-10" d="M1390.89,2645.34h-.75l-104.21-2.69c-14.58-.38-26.44-10.57-27.6-23.72l-7.74-87.6a18.35,18.35,0,0,1,4.57-13.75,22.23,22.23,0,0,1,15.63-7.4c8.8-.45,21.18-1.3,34.29-2.21,27.6-1.9,61.9-4.29,81.24-4.19,13.59.06,25.21,8.45,28.24,20.42,5.08,20.08,4,58,2.29,98.44C1416.32,2635.29,1404.75,2645.34,1390.89,2645.34ZM1271.14,2516.9a15.47,15.47,0,0,0-10.89,5.09,11.64,11.64,0,0,0-2.94,8.73l7.74,87.61c.85,9.73,9.9,17.28,21,17.57l104.21,2.7h.58c10.28,0,18.85-7.19,19.23-16.25,1.67-39.9,2.77-77.3-2.1-96.51-2.24-8.84-11.37-15.29-21.73-15.33-19.06,0-53.26,2.28-80.74,4.18-13.14.9-25.56,1.76-34.41,2.21Z"/><path class="cls-6" d="M1282.24,2526.75c21.92-1.14,69.59-5.2,92.17-5.12,9.56,0,17.86,6,20,14.29,4.09,16.17,3,48.27,1.75,77.89-.37,8.87-8.63,15.82-18.58,15.57l-83.29-2.16c-10.24-.26-18.63-7.39-19.43-16.5l-6.19-70C1268,2533.47,1274.12,2527.17,1282.24,2526.75Z"/><g class="cls-9"><path class="cls-10" d="M1478.83,2556.69a2.93,2.93,0,0,0-3,3.81l11,44.54a5.42,5.42,0,0,0,5,3.91l971.73,5.64a4,4,0,0,0,4-4l-.18-30.89a4.13,4.13,0,0,0-4-4.08Z"/></g><path class="cls-12" d="M1288.51,2102.08h0a16,16,0,0,1,22,6.36l20,37.19a5.14,5.14,0,0,0,9.18-.25l52.84-112.69a5.69,5.69,0,0,1,10.84,2.63c-1.08,34.72-11.37,100.58-67.75,154.92,0,0-30.38-12.38-54.13-66.85A16.78,16.78,0,0,1,1288.51,2102.08Z"/><path class="cls-13" d="M1288.51,2548.87h0a16,16,0,0,1,22,6.37l20,37.19a5.14,5.14,0,0,0,9.18-.25l52.84-112.7a5.69,5.69,0,0,1,10.84,2.64c-1.08,34.71-11.37,100.57-67.75,154.92,0,0-30.38-12.38-54.13-66.85A16.8,16.8,0,0,1,1288.51,2548.87Z"/><path class="cls-14" d="M1919.53,488.54c-52.2-37.59-98.12-37.61-130.6-28.6a64.46,64.46,0,0,0-46.88,67l11.46,152.35,165.6,17.41S2021.9,562.26,1919.53,488.54ZM1844.6,610.08a41.36,41.36,0,1,1,42-40.68A41.36,41.36,0,0,1,1844.6,610.08Z"/><path class="cls-2" d="M1771.18,615a3.36,3.36,0,0,1-3.35-3.12L1766,587.58a3.37,3.37,0,1,1,6.72-.5l1.83,24.26a3.37,3.37,0,0,1-3.11,3.61Zm-3.57-47.54a3.37,3.37,0,0,1-3.36-3.12l-1.39-18.42a60.9,60.9,0,0,1,44.22-63.19,123.45,123.45,0,0,1,60.34-1.5,3.37,3.37,0,0,1-1.46,6.58,116.78,116.78,0,0,0-57.08,1.41,54.15,54.15,0,0,0-39.3,56.19L1771,563.8a3.37,3.37,0,0,1-3.11,3.61Z"/><path class="cls-15" d="M1525.57,773.94l1.24-76.48a46.69,46.69,0,0,1,49-45.86l527,26.65a45.39,45.39,0,0,1,43.06,43.36l3.21,73.56Z"/><path class="cls-2" d="M1723.78,682.2h0l-22.68-.37a3.37,3.37,0,0,1,.06-6.74h.05l22.68.37a3.37,3.37,0,0,1-.06,6.74Z"/><path class="cls-2" d="M1554.56,749.76h0a3.38,3.38,0,0,1-3.32-3.43l.51-30.93a42.72,42.72,0,0,1,43.41-42l83.38,1.35a3.37,3.37,0,0,1-.06,6.74h-.06L1595,680.11a36,36,0,0,0-36.56,35.39l-.51,30.94A3.37,3.37,0,0,1,1554.56,749.76Z"/><path class="cls-4" d="M1360.8,743.26l922.09,15a68.17,68.17,0,0,1,66.24,57.62l.71,4.52A58.55,58.55,0,0,1,2291.05,888l-946-15.39a38.07,38.07,0,0,1-37.36-40.5l2.73-42.31A49.7,49.7,0,0,1,1360.8,743.26Z"/><path class="cls-16" d="M1741.38,2106.27s-115.32,284.81,15.41,447.75,501.87,388.77,762.48,560.56,441.33,155.63,536.51,89.46,171.78-354.2,176.61-459.08,97.45-960.87-256.74-1039.06c0,0,11.29-42,56.47-22.6s105.7,65.33,105.7,65.33,184.72-134.76,93.54-280.77c0,0-357.42-133-502.64-121.73s-332.33,292.1-442.84,378.44S1809.94,2008.64,1741.38,2106.27Z"/><path class="cls-17" d="M2271.33,1571.29s120.6,145.24,210.38,167,103.46-72.65,117.17-120.25,91.9-401.79,271.82-338.08l21.79,42.75s113,95.18,245.26,4.8c0,0,60.45-281.57-104.14-365.44S2431.73,744.33,2271.33,1571.29Z"/><path class="cls-18" d="M2237.33,948.48S2102.67,1325.26,1993.78,1439s-366.21,324.38-383.08,738.26,88,278.31,131.53,176.65,429.93-410.71,606.6-495.45,175-205.76,40.29-250.11-126.68-94.37-59.75-266.22,179-371.14,179-371.14S2458.36,775.79,2237.33,948.48Z"/><path class="cls-19" d="M2513.41,1872.17s-417.07,162.23-342.75,722.11,63,180.71,28.24,12.1,20.92-298.5,72.55-309.81-60.44,375.16,40.43,498.57-32.29-127.46,1.55-346.9C2344.61,2246.11,2293.2,2058.57,2513.41,1872.17Z"/><path class="cls-19" d="M2782.85,1773.7s290.42-69.43,352.6,284.73-79,527.63-112,714,60.46-281.57,70.11-444.54,48.35-300.12-56.54-351.74-228.26,283.22-325.86,355-32.28-33.88,94.35-220.27S3159.61,1814.78,2782.85,1773.7Z"/><path class="cls-20" d="M2223.07,3130.48s7.09,40.16,10.57,79.92a27.39,27.39,0,0,1-26.2,29.68c-53,2.2-166.2,6.49-206.84,4.68a8.91,8.91,0,0,1-7.84-12.21,20,20,0,0,1,10.2-10.75l187.08-86Z"/><path class="cls-21" d="M2228.88,3106.88l-5.7,48s-32.77,15.26-55.15-1.92l13.57-53.54Z"/><path class="cls-22" d="M2224.6,2203.7c2.46,12.54,13.21,626.05-52.37,901a9.33,9.33,0,0,0,5.48,10.85c10.06,4.11,29.78,10.06,53.41,10.86a16.09,16.09,0,0,0,15.94-11.54c18.75-63.79,108.57-383.39,120.29-688.7,13.09-341.15,0-11.61,0-11.61l-7.68-210.88Z"/><path class="cls-23" d="M2438.26,3151.43s11.3,20.28,22.23,74.16a16.7,16.7,0,0,1-14.7,20c-17.49,1.72-44.4,3.93-66,3.78a16.67,16.67,0,0,1-16.5-18.59c2.39-19.66,9.83-51.93,32.81-77.08Z"/><path class="cls-24" d="M2448.18,3089.64l-13.32,72.65s-13.16,9.8-39.21,2.7l6.35-78.17Z"/><path class="cls-25" d="M2484.16,2222.52c53.64,323.7-11.63,800-33.64,893.27a14.55,14.55,0,0,1-11.74,11c-9.83,1.63-26,3-42-1.68a13.31,13.31,0,0,1-9.58-12.27c-3-75.37,2.36-538.1-47.62-721a41.54,41.54,0,0,0-16-22.92l-97-69-7.44-111.46Z"/><path class="cls-26" d="M2142.4,1609.19c160.73-2.66,338.09,42.2,338.09,42.2,47.91,279.56,8.37,602,8.37,602-124.43,32.63-264.81-19.95-264.81-19.95-20.68-116.85-117.18-445.71-117.18-445.71C2028.34,1778,2092.82,1610,2142.4,1609.19Z"/><path class="cls-27" d="M2287.18,1450.67c31.55,36.81,50.56,105.84,69.17,175.93a5.33,5.33,0,0,1-2.43,6.42c-13.94,7.7-64.16,30-124.69-8.39a25.1,25.1,0,0,1-11.56-17.92l-26.41-136.6Z"/><path class="cls-28" d="M2136.27,1464.77s22.2,117.63,54.5,146.48,84.73-17,110.52-82.09l-38.16-115.67Z"/><path class="cls-29" d="M2264.17,1487.07a4.36,4.36,0,0,1-5.47-3.79c-.78-8.18-3-24.4-8.53-35.67,0,0,3.84-11.36-29.46,4.32s-83.28,38.63-111.07,21.85c-27.1-16.35-51.33-92.64,21.66-74.81a4.36,4.36,0,0,0,5.42-4.27c-.25-12.34,2.5-40.54,31.61-48.07,27.25-7.05,41.26,5.84,46.91,13.46a4.34,4.34,0,0,0,6.78.26c8.59-10,31.58-31.17,62.9-15.3,25.79,13.07,29,29.57,28,39.69a4.35,4.35,0,0,0,6,4.47c8.29-3.29,21.41-4.53,33,11.77,16.07,22.52-9.57,39.93-17.22,44.44a4.35,4.35,0,0,0-2.17,3.48c-.68,11.23-5.07,60.13-31.11,86.45a4.4,4.4,0,0,1-7.23-1.66l-16.48-46.07a4.39,4.39,0,0,0-5.24-2.76Z"/><path class="cls-30" d="M2263.27,1496.19s14.09-46.4,30.8-30.19-7.21,48.63-27.64,54Z"/><path class="cls-31" d="M2296.1,1885.87a68.64,68.64,0,0,0-10.53-6.9c-21.32-10.91-48.27-13.09-63.77-31.35-6-7-14.33-20.92-24.82-21.12-11.05-.21-19.31,13.83-20.1,23.28-1.4,16.81,6,37.46,17.64,49.7,11.39,12,26,20.35,40.48,28.39,19.15,10.65,49.43,30.6,72.37,22.64C2342.86,1938.22,2318.06,1903,2296.1,1885.87Z"/><path class="cls-32" d="M2119.15,1828.56a158.2,158.2,0,0,1,38.36-16.84,109.88,109.88,0,0,1,45.48-3.14c8.3,1.25,35.61,6.44,36.92,17.23.93,7.64-13.64,22.2-18.82,26.89-7.78,7.06-16.91,13.62-26.53,17.94-18.86,8.49-39.9,10.38-60.28,13.89-11.81,2-24.85,8.49-37,5.18-16.83-4.6-24.09-27.15-10.45-38.22A273.2,273.2,0,0,1,2119.15,1828.56Z"/><path class="cls-33" d="M2450.92,1829.71c-1.36-62.23-15.14-137.85,29.57-178.32,20.34-7,422.2,517.19-177.49,306.9-28.37,2.08,36.71-27.14-17.43-79.32C2596.84,1921.68,2450.92,1829.71,2450.92,1829.71Z"/><path class="cls-34" d="M2131.66,1610.83l-23.33,181.89c-46.93,55.16-81.63,94-16.52,49.57a2.29,2.29,0,0,1,3.57,2.25c-2.31,14.15,7.73,29.28,28.14,45.24C1893.55,2188.57,1806,1757.2,2131.66,1610.83Z"/></svg>